<svg width="19" height="8" viewBox="0 0 19 8" fill="none" xmlns="http://www.w3.org/2000/svg">
<path d="M0.845665 3.64645C0.650403 3.84171 0.650403 4.15829 0.845665 4.35355L4.02765 7.53553C4.22291 7.7308 4.53949 7.7308 4.73475 7.53553C4.93001 7.34027 4.93001 7.02369 4.73475 6.82843L1.90633 4L4.73475 1.17157C4.93001 0.97631 4.93001 0.659728 4.73475 0.464466C4.53949 0.269203 4.22291 0.269203 4.02765 0.464465L0.845665 3.64645ZM11.1992 3.5L1.19922 3.5L1.19922 4.5L11.1992 4.5L11.1992 3.5Z" fill="white"/>
<path d="M18.7539 4.35355C18.9492 4.15829 18.9492 3.84171 18.7539 3.64645L15.572 0.464466C15.3767 0.269204 15.0601 0.269204 14.8649 0.464466C14.6696 0.659728 14.6696 0.976311 14.8649 1.17157L17.6933 4L14.8649 6.82843C14.6696 7.02369 14.6696 7.34027 14.8649 7.53553C15.0601 7.7308 15.3767 7.7308 15.572 7.53553L18.7539 4.35355ZM8.40039 4.5L18.4004 4.5V3.5L8.40039 3.5V4.5Z" fill="white"/>
</svg>
