<svg width="107" height="79" viewBox="0 0 107 79" fill="none" xmlns="http://www.w3.org/2000/svg">
<mask id="path-1-inside-1" fill="white">
<path fill-rule="evenodd" clip-rule="evenodd" d="M92.4368 12.8862C94.8525 4.82507 81.8608 0 81.8608 0C80.7131 10.33 85.9635 13.7209 89.0866 14.8176C89.3871 15.8472 90.3432 19.4177 90.7342 24.3591C87.1435 20.2552 81.6648 17.7 81.6648 17.7C79.0128 31.6433 86.9459 35.7408 90.225 36.822C89.6925 39.9761 88.794 43.3216 87.3531 46.6653C86.1014 40.9221 81.986 35.5634 81.986 35.5634C73.1436 46.8568 78.0427 54.4052 80.6333 57.1914C78.6108 59.4618 76.2996 61.5425 73.7031 63.4312C75.0648 57.2599 72.5975 49.6615 72.5975 49.6615C61.0567 56.9352 62.4303 65.2577 63.8997 69.0567C57.8686 71.7734 50.8578 73.8134 42.8904 75.1628C41.8512 75.3438 41.1344 76.3393 41.3136 77.389C41.4749 78.3301 42.2812 78.9998 43.1951 78.9998C43.3026 78.9998 43.4101 78.9998 43.5176 78.9455C58.6917 76.372 70.6306 71.3477 79.1804 63.966C81.3447 65.8576 83.583 66.6207 85.7847 66.6207C94.4931 66.6207 102.574 54.8747 102.574 54.8747C98.6681 53.3725 95.3532 52.7572 92.522 52.7572C90.9586 52.7438 89.5322 52.9382 88.2431 53.2673L88.278 53.2092C89.3966 51.3367 90.3751 49.3745 91.2092 47.3317C92.1417 47.6535 93.0327 47.7976 93.8854 47.7976C102.074 47.7976 106.518 34.3865 106.518 34.3865C105.64 34.3141 104.816 34.2779 104.027 34.2779C99.4853 34.2835 96.3026 35.432 94.0727 37.0136C94.4765 34.4755 94.6922 31.8571 94.7198 29.1873C103.76 27.6984 101.465 12.7228 101.465 12.7228C97.6956 14.3111 95.2925 16.2407 93.7927 18.2122C93.2541 15.2411 92.6738 13.4278 92.6322 13.3016C92.5821 13.1525 92.5161 13.0136 92.4368 12.8862Z"/>
</mask>
<path fill-rule="evenodd" clip-rule="evenodd" d="M92.4368 12.8862C94.8525 4.82507 81.8608 0 81.8608 0C80.7131 10.33 85.9635 13.7209 89.0866 14.8176C89.3871 15.8472 90.3432 19.4177 90.7342 24.3591C87.1435 20.2552 81.6648 17.7 81.6648 17.7C79.0128 31.6433 86.9459 35.7408 90.225 36.822C89.6925 39.9761 88.794 43.3216 87.3531 46.6653C86.1014 40.9221 81.986 35.5634 81.986 35.5634C73.1436 46.8568 78.0427 54.4052 80.6333 57.1914C78.6108 59.4618 76.2996 61.5425 73.7031 63.4312C75.0648 57.2599 72.5975 49.6615 72.5975 49.6615C61.0567 56.9352 62.4303 65.2577 63.8997 69.0567C57.8686 71.7734 50.8578 73.8134 42.8904 75.1628C41.8512 75.3438 41.1344 76.3393 41.3136 77.389C41.4749 78.3301 42.2812 78.9998 43.1951 78.9998C43.3026 78.9998 43.4101 78.9998 43.5176 78.9455C58.6917 76.372 70.6306 71.3477 79.1804 63.966C81.3447 65.8576 83.583 66.6207 85.7847 66.6207C94.4931 66.6207 102.574 54.8747 102.574 54.8747C98.6681 53.3725 95.3532 52.7572 92.522 52.7572C90.9586 52.7438 89.5322 52.9382 88.2431 53.2673L88.278 53.2092C89.3966 51.3367 90.3751 49.3745 91.2092 47.3317C92.1417 47.6535 93.0327 47.7976 93.8854 47.7976C102.074 47.7976 106.518 34.3865 106.518 34.3865C105.64 34.3141 104.816 34.2779 104.027 34.2779C99.4853 34.2835 96.3026 35.432 94.0727 37.0136C94.4765 34.4755 94.6922 31.8571 94.7198 29.1873C103.76 27.6984 101.465 12.7228 101.465 12.7228C97.6956 14.3111 95.2925 16.2407 93.7927 18.2122C93.2541 15.2411 92.6738 13.4278 92.6322 13.3016C92.5821 13.1525 92.5161 13.0136 92.4368 12.8862Z" fill="#E00815"/>
<path d="M92.4368 12.8862L91.2873 12.5417L91.1319 13.0604L91.418 13.5201L92.4368 12.8862ZM81.8608 0L82.2786 -1.12492L80.8378 -1.66001L80.6681 -0.132507L81.8608 0ZM89.0866 14.8176L90.2385 14.4813L90.0658 13.8896L89.4841 13.6853L89.0866 14.8176ZM90.7342 24.3591L89.8311 25.1493L92.2162 27.8752L91.9304 24.2644L90.7342 24.3591ZM81.6648 17.7L82.172 16.6124L80.7741 15.9605L80.4859 17.4757L81.6648 17.7ZM90.225 36.822L91.4083 37.0218L91.5799 36.0052L90.6008 35.6824L90.225 36.822ZM87.3531 46.6653L86.1806 46.9208L86.9763 50.5717L88.4551 47.1402L87.3531 46.6653ZM81.986 35.5634L82.9377 34.8325L81.9951 33.6052L81.0411 34.8236L81.986 35.5634ZM80.6333 57.1914L81.5293 57.9896L82.2558 57.1741L81.5121 56.3743L80.6333 57.1914ZM73.7031 63.4312L72.5312 63.1726L71.8492 66.2635L74.4089 64.4016L73.7031 63.4312ZM72.5975 49.6615L73.7388 49.2909L73.2625 47.8239L71.9577 48.6463L72.5975 49.6615ZM63.8997 69.0567L64.3926 70.1508L65.429 69.684L65.0189 68.6238L63.8997 69.0567ZM42.8904 75.1628L42.69 73.9797L42.6846 73.9806L42.8904 75.1628ZM41.3136 77.389L40.1307 77.5909L40.1309 77.5916L41.3136 77.389ZM43.5176 78.9455L43.3169 77.7624L43.1384 77.7926L42.9767 77.8743L43.5176 78.9455ZM79.1804 63.966L79.9701 63.0625L79.1852 62.3765L78.3962 63.0577L79.1804 63.966ZM102.574 54.8747L103.563 55.5549L104.426 54.301L103.005 53.7547L102.574 54.8747ZM92.522 52.7572L92.5118 53.9572H92.522V52.7572ZM88.2431 53.2673L87.2143 52.6496L85.7118 55.1519L88.5399 54.43L88.2431 53.2673ZM88.278 53.2092L89.3068 53.8269L89.3082 53.8246L88.278 53.2092ZM91.2092 47.3317L91.6007 46.1974L90.5275 45.8269L90.0983 46.8781L91.2092 47.3317ZM106.518 34.3865L107.657 34.7639L108.137 33.3159L106.617 33.1906L106.518 34.3865ZM104.027 34.2779V33.0779H104.026L104.027 34.2779ZM94.0727 37.0136L92.8876 36.8251L92.4393 39.6433L94.767 37.9923L94.0727 37.0136ZM94.7198 29.1873L94.5248 28.0033L93.5304 28.167L93.5199 29.1749L94.7198 29.1873ZM101.465 12.7228L102.651 12.5411L102.418 11.0191L100.999 11.617L101.465 12.7228ZM93.7927 18.2122L92.6119 18.4262L93.0979 21.1074L94.7477 18.9387L93.7927 18.2122ZM92.6322 13.3016L93.7718 12.9255L93.7697 12.9195L92.6322 13.3016ZM93.5863 13.2306C95.029 8.41648 91.7923 4.72789 88.7756 2.46086C87.2227 1.29383 85.603 0.401041 84.381 -0.19772C83.7676 -0.498292 83.2485 -0.727615 82.8802 -0.882789C82.6959 -0.96043 82.549 -1.01966 82.4465 -1.06011C82.3952 -1.08034 82.355 -1.09589 82.3268 -1.1067C82.3126 -1.11211 82.3015 -1.11633 82.2934 -1.11937C82.2894 -1.12089 82.2861 -1.12212 82.2836 -1.12304C82.2824 -1.1235 82.2814 -1.12389 82.2805 -1.1242C82.2801 -1.12436 82.2796 -1.12454 82.2794 -1.12462C82.279 -1.12478 82.2786 -1.12492 81.8608 0C81.443 1.12492 81.4427 1.12482 81.4425 1.12473C81.4425 1.12473 81.4423 1.12466 81.4423 1.12465C81.4422 1.12463 81.4424 1.12468 81.4427 1.12481C81.4434 1.12506 81.4448 1.1256 81.447 1.12643C81.4514 1.12809 81.4589 1.13091 81.4692 1.13488C81.49 1.14281 81.5224 1.15535 81.5657 1.17242C81.6523 1.20659 81.7822 1.25889 81.9484 1.32893C82.2811 1.46912 82.7582 1.67973 83.325 1.95746C84.4635 2.51531 85.9407 3.3326 87.3338 4.37948C90.2091 6.54026 92.2604 9.29475 91.2873 12.5417L93.5863 13.2306ZM80.6681 -0.132507C80.0696 5.2547 81.1273 8.98833 82.8822 11.5496C84.6278 14.0972 86.9677 15.3454 88.689 15.9498L89.4841 13.6853C88.0824 13.1931 86.2355 12.1975 84.8621 10.193C83.498 8.20214 82.5043 5.0753 83.0535 0.132507L80.6681 -0.132507ZM87.9347 15.1538C88.2192 16.1287 89.1551 19.6159 89.5379 24.4537L91.9304 24.2644C91.5313 19.2196 90.555 15.5657 90.2385 14.4813L87.9347 15.1538ZM91.6373 23.5689C89.7354 21.3952 87.3615 19.659 85.4951 18.4768C84.5561 17.8821 83.7325 17.4195 83.1414 17.1044C82.8456 16.9467 82.6073 16.8256 82.441 16.743C82.3578 16.7017 82.2926 16.67 82.2472 16.6482C82.2245 16.6373 82.2067 16.6288 82.1941 16.6228C82.1878 16.6199 82.1828 16.6175 82.1791 16.6158C82.1773 16.6149 82.1757 16.6142 82.1746 16.6136C82.174 16.6133 82.1735 16.6131 82.173 16.6129C82.1728 16.6128 82.1726 16.6127 82.1725 16.6126C82.1722 16.6125 82.172 16.6124 81.6648 17.7C81.1576 18.7875 81.1574 18.7874 81.1572 18.7873C81.1572 18.7873 81.1571 18.7873 81.157 18.7873C81.1569 18.7872 81.1569 18.7872 81.157 18.7872C81.1572 18.7873 81.1576 18.7875 81.1584 18.7879C81.16 18.7887 81.1629 18.79 81.1671 18.792C81.1754 18.7959 81.1889 18.8023 81.2072 18.8111C81.2437 18.8287 81.2998 18.8559 81.3734 18.8925C81.5208 18.9657 81.7386 19.0763 82.0125 19.2223C82.5608 19.5146 83.3313 19.9473 84.2109 20.5043C85.9814 21.6258 88.1422 23.2191 89.8311 25.1493L91.6373 23.5689ZM80.4859 17.4757C79.1118 24.7005 80.455 29.559 82.7424 32.7792C85.0061 35.966 88.0727 37.3759 89.8493 37.9617L90.6008 35.6824C89.0982 35.1869 86.5587 34.0074 84.699 31.3894C82.8631 28.8047 81.5658 24.6428 82.8437 17.9242L80.4859 17.4757ZM89.0418 36.6222C88.5228 39.6959 87.6487 42.9471 86.2511 46.1904L88.4551 47.1402C89.9394 43.6961 90.8622 40.2563 91.4083 37.0218L89.0418 36.6222ZM88.5256 46.4098C87.8623 43.3665 86.4539 40.4689 85.2399 38.3616C84.629 37.3011 84.0582 36.4252 83.6387 35.8125C83.4288 35.5059 83.2563 35.2645 83.135 35.0981C83.0743 35.0148 83.0264 34.9503 82.9929 34.9056C82.9762 34.8833 82.9631 34.8659 82.9538 34.8537C82.9492 34.8476 82.9455 34.8427 82.9428 34.8392C82.9415 34.8374 82.9403 34.836 82.9395 34.8349C82.9391 34.8343 82.9387 34.8338 82.9384 34.8334C82.9383 34.8332 82.9381 34.833 82.938 34.8329C82.9378 34.8327 82.9377 34.8325 81.986 35.5634C81.0342 36.2943 81.0341 36.2942 81.034 36.2941C81.034 36.294 81.0339 36.2939 81.0339 36.2939C81.0339 36.2938 81.0339 36.2938 81.0339 36.2939C81.0341 36.2941 81.0345 36.2946 81.0351 36.2955C81.0364 36.2971 81.0386 36.3001 81.0418 36.3042C81.0482 36.3126 81.0583 36.3261 81.072 36.3444C81.0995 36.3811 81.1412 36.4372 81.1955 36.5117C81.3041 36.6607 81.4629 36.8828 81.6584 37.1684C82.0497 37.7399 82.586 38.5627 83.1603 39.5597C84.317 41.5675 85.5922 44.2208 86.1806 46.9208L88.5256 46.4098ZM81.0411 34.8236C76.4641 40.6694 75.3421 45.6901 75.831 49.7124C76.3156 53.699 78.359 56.5076 79.7545 58.0085L81.5121 56.3743C80.317 55.0889 78.6155 52.7303 78.2135 49.4228C77.8158 46.151 78.6655 41.7508 82.9308 36.3032L81.0411 34.8236ZM79.7372 56.3932C77.775 58.5961 75.5283 60.6196 72.9972 62.4607L74.4089 64.4016C77.0709 62.4653 79.4467 60.3276 81.5293 57.9896L79.7372 56.3932ZM74.8749 63.6897C75.6044 60.3837 75.3009 56.7641 74.8445 54.0342C74.6142 52.6569 74.3402 51.479 74.1232 50.6435C74.0146 50.2254 73.92 49.8919 73.8519 49.6607C73.8178 49.5451 73.7903 49.455 73.771 49.3927C73.7613 49.3615 73.7536 49.3372 73.7482 49.3202C73.7455 49.3116 73.7434 49.3049 73.7418 49.3C73.741 49.2976 73.7404 49.2956 73.7399 49.2941C73.7396 49.2933 73.7394 49.2927 73.7392 49.2921C73.7392 49.2919 73.7391 49.2915 73.739 49.2914C73.7389 49.2911 73.7388 49.2909 72.5975 49.6615C71.4562 50.0321 71.4561 50.0319 71.456 50.0317C71.456 50.0317 71.456 50.0316 71.456 50.0315C71.456 50.0315 71.456 50.0315 71.456 50.0317C71.4561 50.032 71.4564 50.0328 71.4568 50.034C71.4576 50.0365 71.4589 50.0407 71.4609 50.0468C71.4647 50.0588 71.4707 50.078 71.4788 50.104C71.4949 50.1559 71.5191 50.2351 71.5498 50.3394C71.6113 50.5479 71.6988 50.8562 71.8003 51.2468C72.0034 52.0289 72.261 53.1363 72.4774 54.43C72.9141 57.0421 73.1635 60.3074 72.5312 63.1726L74.8749 63.6897ZM71.9577 48.6463C65.9839 52.4114 63.2175 56.5415 62.2096 60.3556C61.2086 64.1438 61.9892 67.4436 62.7805 69.4896L65.0189 68.6238C64.3409 66.8708 63.6999 64.1099 64.53 60.9687C65.3532 57.8534 67.6703 54.1854 73.2373 50.6767L71.9577 48.6463ZM63.4069 67.9626C57.4866 70.6293 50.5775 72.6438 42.69 73.9797L43.0908 76.346C51.1381 74.983 58.2506 72.9175 64.3926 70.1508L63.4069 67.9626ZM42.6846 73.9806C41.0029 74.2735 39.8388 75.8804 40.1307 77.5909L42.4965 77.1871C42.4301 76.7981 42.6994 76.4142 43.0963 76.345L42.6846 73.9806ZM40.1309 77.5916C40.3898 79.1026 41.6903 80.1998 43.1951 80.1998V77.7998C42.8721 77.7998 42.56 77.5576 42.4964 77.1863L40.1309 77.5916ZM43.1951 80.1998C43.2724 80.1998 43.6607 80.2175 44.0585 80.0166L42.9767 77.8743C43.0724 77.8259 43.1575 77.8085 43.206 77.8024C43.2277 77.7997 43.2404 77.7994 43.2378 77.7995C43.233 77.7997 43.2251 77.7998 43.1951 77.7998V80.1998ZM43.7182 80.1286C59.0338 77.5311 71.1999 72.4416 79.9646 64.8743L78.3962 63.0577C70.0613 70.2539 58.3496 75.2129 43.3169 77.7624L43.7182 80.1286ZM78.3907 64.8695C80.761 66.9412 83.2762 67.8207 85.7847 67.8207V65.4207C83.8898 65.4207 81.9283 64.774 79.9701 63.0625L78.3907 64.8695ZM85.7847 67.8207C90.6304 67.8207 95.1241 64.5908 98.2692 61.6201C99.8721 60.106 101.19 58.5961 102.107 57.4662C102.567 56.9003 102.927 56.4274 103.174 56.0938C103.298 55.927 103.393 55.7948 103.459 55.7031C103.491 55.6572 103.517 55.6215 103.534 55.5965C103.543 55.584 103.549 55.5743 103.554 55.5673C103.557 55.5638 103.559 55.561 103.56 55.559C103.561 55.5579 103.561 55.5571 103.562 55.5564C103.562 55.556 103.562 55.5557 103.563 55.5555C103.563 55.5552 103.563 55.5549 102.574 54.8747C101.586 54.1945 101.586 54.1943 101.586 54.1942C101.586 54.1942 101.586 54.1941 101.586 54.1941C101.586 54.1941 101.586 54.1943 101.586 54.1947C101.585 54.1955 101.584 54.197 101.583 54.1991C101.58 54.2034 101.575 54.2105 101.568 54.2203C101.554 54.2398 101.533 54.27 101.504 54.3101C101.447 54.3905 101.36 54.5107 101.246 54.665C101.017 54.9738 100.678 55.4185 100.244 55.9538C99.3734 57.0263 98.1271 58.4529 96.6211 59.8753C93.5485 62.7777 89.6474 65.4207 85.7847 65.4207V67.8207ZM103.005 53.7547C98.9902 52.2107 95.5285 51.5572 92.522 51.5572V53.9572C95.1779 53.9572 98.346 54.5343 102.144 55.9947L103.005 53.7547ZM92.5323 51.5572C90.8618 51.5429 89.3323 51.7508 87.9463 52.1046L88.5399 54.43C89.7322 54.1257 91.0553 53.9446 92.5118 53.9571L92.5323 51.5572ZM89.2719 53.885L89.3068 53.8269L87.2492 52.5914L87.2143 52.6496L89.2719 53.885ZM89.3082 53.8246C90.4581 51.8996 91.4635 49.8833 92.3202 47.7853L90.0983 46.8781C89.2867 48.8657 88.3351 50.7737 87.2478 52.5938L89.3082 53.8246ZM90.8177 48.466C91.8712 48.8296 92.8944 48.9976 93.8854 48.9976V46.5976C93.1711 46.5976 92.4122 46.4774 91.6007 46.1974L90.8177 48.466ZM93.8854 48.9976C98.6556 48.9976 102.126 45.1266 104.285 41.7365C105.396 39.991 106.236 38.2542 106.797 36.9589C107.078 36.3095 107.291 35.7669 107.435 35.3841C107.506 35.1926 107.561 35.0407 107.598 34.9352C107.617 34.8825 107.631 34.8413 107.641 34.8125C107.646 34.7981 107.649 34.7867 107.652 34.7786C107.653 34.7746 107.655 34.7713 107.655 34.7688C107.656 34.7676 107.656 34.7666 107.656 34.7658C107.657 34.7654 107.657 34.7649 107.657 34.7647C107.657 34.7643 107.657 34.7639 106.518 34.3865C105.379 34.0091 105.379 34.0088 105.379 34.0086L105.379 34.0084C105.379 34.0084 105.379 34.0086 105.379 34.009C105.379 34.0098 105.378 34.0114 105.377 34.0138C105.376 34.0186 105.373 34.0265 105.369 34.0375C105.362 34.0594 105.35 34.0935 105.334 34.139C105.302 34.2299 105.253 34.3662 105.187 34.5414C105.056 34.892 104.858 35.3971 104.594 36.0051C104.066 37.2243 103.283 38.8403 102.26 40.4476C100.149 43.763 97.304 46.5976 93.8854 46.5976V48.9976ZM106.617 33.1906C105.71 33.1158 104.852 33.0779 104.027 33.0779V35.4779C104.779 35.4779 105.57 35.5124 106.419 35.5824L106.617 33.1906ZM104.026 33.0779C99.2732 33.0838 95.8394 34.2893 93.3785 36.0348L94.767 37.9923C96.7657 36.5746 99.6975 35.4833 104.029 35.4779L104.026 33.0779ZM95.2578 37.2021C95.6712 34.6032 95.8915 31.9258 95.9198 29.1997L93.5199 29.1749C93.4928 31.7883 93.2817 34.3478 92.8876 36.8251L95.2578 37.2021ZM94.9149 30.3713C100.281 29.4876 102.102 24.5838 102.67 20.5649C102.963 18.4984 102.957 16.4976 102.88 15.024C102.842 14.2842 102.786 13.6704 102.739 13.2388C102.715 13.0228 102.694 12.8521 102.678 12.7335C102.67 12.6743 102.664 12.628 102.659 12.5956C102.657 12.5795 102.655 12.5667 102.653 12.5576C102.653 12.553 102.652 12.5494 102.652 12.5466C102.652 12.5452 102.651 12.5441 102.651 12.5431C102.651 12.5427 102.651 12.5422 102.651 12.5419C102.651 12.5415 102.651 12.5411 101.465 12.7228C100.279 12.9046 100.279 12.9043 100.278 12.9041C100.278 12.9041 100.278 12.9039 100.278 12.9039C100.278 12.9039 100.278 12.9041 100.279 12.9045C100.279 12.9054 100.279 12.9071 100.279 12.9098C100.28 12.915 100.281 12.9238 100.283 12.936C100.287 12.9604 100.292 12.9984 100.299 13.0492C100.312 13.1508 100.331 13.3032 100.353 13.4997C100.396 13.8928 100.448 14.4606 100.484 15.1481C100.555 16.5289 100.558 18.365 100.294 20.2285C99.7504 24.0696 98.199 27.3981 94.5248 28.0033L94.9149 30.3713ZM100.999 11.617C97.0761 13.27 94.4883 15.3158 92.8376 17.4856L94.7477 18.9387C96.0966 17.1656 98.3152 15.3522 101.931 13.8287L100.999 11.617ZM94.9734 17.9982C94.4237 14.9656 93.8287 13.098 93.7717 12.9255L91.4926 13.6777C91.519 13.7576 92.0845 15.5166 92.6119 18.4262L94.9734 17.9982ZM93.7697 12.9195C93.6899 12.6818 93.584 12.4584 93.4557 12.2522L91.418 13.5201C91.4482 13.5688 91.4743 13.6232 91.4946 13.6837L93.7697 12.9195Z" fill="#1D1D1D" mask="url(#path-1-inside-1)"/>
<mask id="path-3-inside-2" fill="white">
<path fill-rule="evenodd" clip-rule="evenodd" d="M14.0817 12.8862C11.666 4.82507 24.6578 0 24.6578 0C25.8054 10.33 20.5551 13.7209 17.432 14.8176C17.1314 15.8472 16.1753 19.4178 15.7844 24.3593C19.375 20.2553 24.854 17.7 24.854 17.7C27.506 31.6436 19.5726 35.7409 16.2935 36.8221C16.8261 39.9762 17.7246 43.3218 19.1656 46.6656C20.4172 40.9223 24.5328 35.5634 24.5328 35.5634C33.3753 46.857 28.476 54.4054 25.8854 57.1915C27.9079 59.462 30.2192 61.5426 32.8157 63.4313C31.454 57.2601 33.9213 49.6615 33.9213 49.6615C45.4621 56.9353 44.0884 65.2578 42.619 69.0568C48.6501 71.7735 55.6608 73.8134 63.6281 75.1628C64.6674 75.3438 65.3841 76.3393 65.2049 77.389C65.0437 78.3301 64.2373 78.9998 63.3235 78.9998C63.216 78.9998 63.1085 78.9998 63.001 78.9455C47.8269 76.372 35.888 71.3478 27.3383 63.9661C25.174 65.8576 22.9358 66.6207 20.7341 66.6207C12.0257 66.6207 3.94444 54.8747 3.94444 54.8747C7.85067 53.3725 11.1656 52.7572 13.9967 52.7572C15.5601 52.7438 16.9863 52.9382 18.2754 53.2672L18.2406 53.2092C17.122 51.3367 16.1434 49.3745 15.3094 47.3317C14.3769 47.6536 13.486 47.7976 12.6334 47.7976C4.44461 47.7976 0.000823975 34.3865 0.000823975 34.3865C0.87883 34.3141 1.70308 34.2779 2.49149 34.2779C7.03325 34.2835 10.216 35.4319 12.4458 37.0134C12.0421 34.4754 11.8264 31.857 11.7987 29.1873C2.7591 27.6981 5.05402 12.7228 5.05402 12.7228C8.82298 14.311 11.2261 16.2406 12.7259 18.212C13.2645 15.241 13.8447 13.4278 13.8864 13.3016C13.9364 13.1525 14.0024 13.0136 14.0817 12.8862Z"/>
</mask>
<path fill-rule="evenodd" clip-rule="evenodd" d="M14.0817 12.8862C11.666 4.82507 24.6578 0 24.6578 0C25.8054 10.33 20.5551 13.7209 17.432 14.8176C17.1314 15.8472 16.1753 19.4178 15.7844 24.3593C19.375 20.2553 24.854 17.7 24.854 17.7C27.506 31.6436 19.5726 35.7409 16.2935 36.8221C16.8261 39.9762 17.7246 43.3218 19.1656 46.6656C20.4172 40.9223 24.5328 35.5634 24.5328 35.5634C33.3753 46.857 28.476 54.4054 25.8854 57.1915C27.9079 59.462 30.2192 61.5426 32.8157 63.4313C31.454 57.2601 33.9213 49.6615 33.9213 49.6615C45.4621 56.9353 44.0884 65.2578 42.619 69.0568C48.6501 71.7735 55.6608 73.8134 63.6281 75.1628C64.6674 75.3438 65.3841 76.3393 65.2049 77.389C65.0437 78.3301 64.2373 78.9998 63.3235 78.9998C63.216 78.9998 63.1085 78.9998 63.001 78.9455C47.8269 76.372 35.888 71.3478 27.3383 63.9661C25.174 65.8576 22.9358 66.6207 20.7341 66.6207C12.0257 66.6207 3.94444 54.8747 3.94444 54.8747C7.85067 53.3725 11.1656 52.7572 13.9967 52.7572C15.5601 52.7438 16.9863 52.9382 18.2754 53.2672L18.2406 53.2092C17.122 51.3367 16.1434 49.3745 15.3094 47.3317C14.3769 47.6536 13.486 47.7976 12.6334 47.7976C4.44461 47.7976 0.000823975 34.3865 0.000823975 34.3865C0.87883 34.3141 1.70308 34.2779 2.49149 34.2779C7.03325 34.2835 10.216 35.4319 12.4458 37.0134C12.0421 34.4754 11.8264 31.857 11.7987 29.1873C2.7591 27.6981 5.05402 12.7228 5.05402 12.7228C8.82298 14.311 11.2261 16.2406 12.7259 18.212C13.2645 15.241 13.8447 13.4278 13.8864 13.3016C13.9364 13.1525 14.0024 13.0136 14.0817 12.8862Z" fill="#E00815"/>
<path d="M14.0817 12.8862L15.2312 12.5417L15.3866 13.0604L15.1006 13.5201L14.0817 12.8862ZM24.6578 0L24.24 -1.12492L25.6807 -1.66001L25.8504 -0.132507L24.6578 0ZM17.432 14.8176L16.28 14.4813L16.4528 13.8896L17.0344 13.6853L17.432 14.8176ZM15.7844 24.3593L16.6875 25.1495L14.3024 27.8755L14.5881 24.2647L15.7844 24.3593ZM24.854 17.7L24.3467 16.6124L25.7446 15.9605L26.0328 17.4757L24.854 17.7ZM16.2935 36.8221L15.1103 37.0219L14.9386 36.0053L15.9178 35.6824L16.2935 36.8221ZM19.1656 46.6656L20.3381 46.9211L19.5425 50.5721L18.0636 47.1405L19.1656 46.6656ZM24.5328 35.5634L23.5811 34.8325L24.5236 33.6052L25.4776 34.8236L24.5328 35.5634ZM25.8854 57.1915L24.9893 57.9897L24.2629 57.1742L25.0066 56.3744L25.8854 57.1915ZM32.8157 63.4313L33.9875 63.1727L34.6696 66.2637L32.1099 64.4018L32.8157 63.4313ZM33.9213 49.6615L32.7799 49.2909L33.2563 47.8239L34.5611 48.6463L33.9213 49.6615ZM42.619 69.0568L42.1262 70.1509L41.0897 69.684L41.4998 68.6239L42.619 69.0568ZM63.6281 75.1628L63.8285 73.9797L63.834 73.9806L63.6281 75.1628ZM65.2049 77.389L66.3878 77.5909L66.3877 77.5916L65.2049 77.389ZM63.001 78.9455L63.2016 77.7624L63.3802 77.7926L63.5419 77.8743L63.001 78.9455ZM27.3383 63.9661L26.5486 63.0625L27.3335 62.3766L28.1225 63.0578L27.3383 63.9661ZM3.94444 54.8747L2.95582 55.5549L2.09314 54.301L3.51372 53.7547L3.94444 54.8747ZM13.9967 52.7572L14.007 53.9572H13.9967V52.7572ZM18.2754 53.2672L19.3042 52.6495L20.8067 55.1518L17.9786 54.4299L18.2754 53.2672ZM18.2406 53.2092L17.2118 53.8269L17.2104 53.8246L18.2406 53.2092ZM15.3094 47.3317L14.9179 46.1974L15.9911 45.827L16.4203 46.8781L15.3094 47.3317ZM0.000823975 34.3865L-1.13827 34.7639L-1.61808 33.3159L-0.0977859 33.1906L0.000823975 34.3865ZM2.49149 34.2779V33.0779H2.49298L2.49149 34.2779ZM12.4458 37.0134L13.6309 36.8249L14.0792 39.6431L11.7516 37.9922L12.4458 37.0134ZM11.7987 29.1873L11.9938 28.0032L12.9882 28.167L12.9987 29.1748L11.7987 29.1873ZM5.05402 12.7228L3.86787 12.5411L4.10111 11.0191L5.52 11.617L5.05402 12.7228ZM12.7259 18.212L13.9067 18.426L13.4207 21.1071L11.7709 18.9385L12.7259 18.212ZM13.8864 13.3016L12.7468 12.9255L12.7488 12.9195L13.8864 13.3016ZM12.9322 13.2306C11.4896 8.41648 14.7263 4.72789 17.7429 2.46086C19.2959 1.29383 20.9156 0.401041 22.1375 -0.19772C22.751 -0.498292 23.27 -0.727615 23.6383 -0.882789C23.8226 -0.96043 23.9695 -1.01966 24.0721 -1.06011C24.1233 -1.08034 24.1635 -1.09589 24.1918 -1.1067C24.2059 -1.11211 24.2171 -1.11633 24.2252 -1.11937C24.2292 -1.12089 24.2324 -1.12212 24.2349 -1.12304C24.2362 -1.1235 24.2372 -1.12389 24.238 -1.1242C24.2385 -1.12436 24.2389 -1.12454 24.2392 -1.12462C24.2396 -1.12478 24.24 -1.12492 24.6578 0C25.0756 1.12492 25.0758 1.12482 25.0761 1.12473C25.0761 1.12473 25.0763 1.12466 25.0763 1.12465C25.0763 1.12463 25.0762 1.12468 25.0759 1.12481C25.0752 1.12506 25.0737 1.1256 25.0715 1.12643C25.0671 1.12809 25.0597 1.13091 25.0493 1.13488C25.0286 1.14281 24.9961 1.15535 24.9528 1.17242C24.8662 1.20659 24.7364 1.25889 24.5701 1.32893C24.2374 1.46912 23.7604 1.67973 23.1936 1.95746C22.0551 2.51531 20.5778 3.3326 19.1848 4.37948C16.3095 6.54026 14.2582 9.29475 15.2312 12.5417L12.9322 13.2306ZM25.8504 -0.132507C26.449 5.2547 25.3913 8.98833 23.6363 11.5496C21.8907 14.0972 19.5508 15.3454 17.8295 15.9498L17.0344 13.6853C18.4362 13.1931 20.2831 12.1975 21.6565 10.193C23.0206 8.20214 24.0143 5.0753 23.4651 0.132507L25.8504 -0.132507ZM18.5839 15.1538C18.2993 16.1287 17.3634 19.616 16.9806 24.454L14.5881 24.2647C14.9873 19.2197 15.9635 15.5657 16.28 14.4813L18.5839 15.1538ZM14.8812 23.5692C16.7831 21.3954 19.157 19.6591 21.0236 18.4769C21.9626 17.8822 22.7862 17.4195 23.3773 17.1044C23.6732 16.9467 23.9115 16.8256 24.0778 16.743C24.1609 16.7017 24.2261 16.67 24.2715 16.6482C24.2942 16.6373 24.312 16.6288 24.3246 16.6228C24.3309 16.6199 24.3359 16.6175 24.3396 16.6158C24.3415 16.6149 24.343 16.6142 24.3442 16.6136C24.3448 16.6133 24.3453 16.6131 24.3457 16.6129C24.3459 16.6128 24.3462 16.6127 24.3463 16.6126C24.3465 16.6125 24.3467 16.6124 24.854 17.7C25.3612 18.7875 25.3614 18.7874 25.3615 18.7873C25.3615 18.7873 25.3617 18.7873 25.3617 18.7873C25.3618 18.7872 25.3618 18.7872 25.3618 18.7872C25.3616 18.7873 25.3611 18.7875 25.3603 18.7879C25.3587 18.7887 25.3558 18.79 25.3517 18.792C25.3433 18.7959 25.3299 18.8023 25.3116 18.8111C25.275 18.8287 25.219 18.8559 25.1453 18.8925C24.9979 18.9657 24.7802 19.0763 24.5062 19.2223C23.9579 19.5146 23.1874 19.9473 22.3078 20.5044C20.5372 21.6259 18.3763 23.2192 16.6875 25.1495L14.8812 23.5692ZM26.0328 17.4757C27.407 24.7006 26.0637 29.5591 23.7762 32.7794C21.5125 35.9662 18.4458 37.376 16.6693 37.9617L15.9178 35.6824C17.4203 35.187 19.9599 34.0075 21.8196 31.3895C23.6556 28.8049 24.953 24.6429 23.6751 17.9242L26.0328 17.4757ZM17.4768 36.6223C17.9958 39.696 18.8699 42.9473 20.2676 46.1907L18.0636 47.1405C16.5793 43.6963 15.6564 40.2564 15.1103 37.0219L17.4768 36.6223ZM17.9931 46.4101C18.6563 43.3668 20.0648 40.4691 21.2787 38.3618C21.8897 37.3012 22.4605 36.4253 22.88 35.8126C23.0899 35.506 23.2624 35.2645 23.3838 35.0981C23.4444 35.0148 23.4924 34.9503 23.5258 34.9056C23.5425 34.8833 23.5556 34.8659 23.5649 34.8537C23.5696 34.8476 23.5733 34.8427 23.576 34.8392C23.5773 34.8374 23.5784 34.836 23.5793 34.8349C23.5797 34.8343 23.5801 34.8338 23.5804 34.8334C23.5805 34.8332 23.5807 34.833 23.5808 34.8329C23.5809 34.8327 23.5811 34.8325 24.5328 35.5634C25.4845 36.2943 25.4846 36.2942 25.4847 36.2941C25.4847 36.294 25.4848 36.2939 25.4849 36.2939C25.4849 36.2938 25.4849 36.2938 25.4848 36.2939C25.4847 36.2941 25.4843 36.2946 25.4837 36.2955C25.4824 36.2971 25.4801 36.3001 25.477 36.3043C25.4706 36.3126 25.4604 36.3261 25.4467 36.3444C25.4193 36.3811 25.3775 36.4372 25.3232 36.5117C25.2146 36.6608 25.0558 36.8829 24.8604 37.1684C24.469 37.74 23.9327 38.5627 23.3584 39.5598C22.2016 41.5677 20.9265 44.2211 20.3381 46.9211L17.9931 46.4101ZM25.4776 34.8236C30.0548 40.6695 31.1767 45.6902 30.6877 49.7125C30.2031 53.6992 28.1597 56.5078 26.7642 58.0086L25.0066 56.3744C26.2017 55.0891 27.9032 52.7304 28.3052 49.4229C28.703 46.1512 27.8533 41.7509 23.588 36.3032L25.4776 34.8236ZM26.7814 56.3933C28.7437 58.5962 30.9905 60.6198 33.5216 62.4609L32.1099 64.4018C29.4479 62.4655 27.072 60.3278 24.9893 57.9897L26.7814 56.3933ZM31.6439 63.6899C30.9144 60.3839 31.2178 56.7642 31.6743 54.0343C31.9045 52.6569 32.1786 51.479 32.3955 50.6436C32.5041 50.2254 32.5987 49.8919 32.6669 49.6607C32.701 49.5451 32.7284 49.455 32.7478 49.3927C32.7575 49.3615 32.7651 49.3372 32.7705 49.3202C32.7732 49.3116 32.7754 49.3049 32.777 49.3C32.7777 49.2976 32.7784 49.2956 32.7789 49.2941C32.7791 49.2933 32.7793 49.2927 32.7795 49.2921C32.7796 49.2919 32.7797 49.2915 32.7797 49.2914C32.7798 49.2911 32.7799 49.2909 33.9213 49.6615C35.0626 50.0321 35.0627 50.0319 35.0627 50.0317C35.0627 50.0317 35.0628 50.0316 35.0628 50.0315C35.0628 50.0315 35.0628 50.0315 35.0627 50.0317C35.0626 50.032 35.0624 50.0328 35.062 50.034C35.0612 50.0365 35.0598 50.0407 35.0579 50.0468C35.0541 50.0588 35.048 50.078 35.04 50.104C35.0238 50.156 34.9996 50.2351 34.9689 50.3394C34.9075 50.5479 34.8199 50.8562 34.7185 51.2468C34.5154 52.0289 34.2577 53.1364 34.0414 54.4301C33.6046 57.0422 33.3553 60.3075 33.9875 63.1727L31.6439 63.6899ZM34.5611 48.6463C40.5349 52.4114 43.3013 56.5415 44.3091 60.3556C45.3101 64.1439 44.5295 67.4437 43.7382 69.4897L41.4998 68.6239C42.1779 66.8708 42.8188 64.11 41.9888 60.9688C41.1656 57.8534 38.8484 54.1854 33.2814 50.6767L34.5611 48.6463ZM43.1118 67.9626C49.032 70.6294 55.9411 72.6438 63.8285 73.9797L63.4277 76.346C55.3805 74.983 48.2681 72.9175 42.1262 70.1509L43.1118 67.9626ZM63.834 73.9806C65.5156 74.2735 66.6798 75.8804 66.3878 77.5909L64.0221 77.1871C64.0885 76.7981 63.8192 76.4142 63.4222 76.345L63.834 73.9806ZM66.3877 77.5916C66.1288 79.1026 64.8282 80.1998 63.3235 80.1998V77.7998C63.6464 77.7998 63.9586 77.5576 64.0222 77.1863L66.3877 77.5916ZM63.3235 80.1998C63.2462 80.1998 62.8578 80.2175 62.46 80.0166L63.5419 77.8743C63.4461 77.8259 63.3611 77.8085 63.3125 77.8024C63.2909 77.7997 63.2782 77.7994 63.2807 77.7995C63.2855 77.7997 63.2935 77.7998 63.3235 77.7998V80.1998ZM62.8003 80.1286C47.4848 77.5311 35.3187 72.4416 26.554 64.8744L28.1225 63.0578C36.4573 70.2539 48.1691 75.2129 63.2016 77.7624L62.8003 80.1286ZM28.1279 64.8696C25.7576 66.9413 23.2425 67.8207 20.7341 67.8207V65.4207C22.629 65.4207 24.5903 64.774 26.5486 63.0625L28.1279 64.8696ZM20.7341 67.8207C15.8884 67.8207 11.3946 64.5908 8.2496 61.6201C6.64667 60.106 5.3284 58.5961 4.41144 57.4662C3.95219 56.9003 3.5917 56.4274 3.34452 56.0938C3.22089 55.927 3.12548 55.7948 3.06012 55.7031C3.02743 55.6572 3.00224 55.6215 2.98479 55.5965C2.97606 55.584 2.96926 55.5743 2.96442 55.5673C2.96201 55.5638 2.96008 55.561 2.95864 55.559C2.95792 55.5579 2.95733 55.5571 2.95686 55.5564C2.95662 55.556 2.95636 55.5557 2.95625 55.5555C2.95602 55.5552 2.95582 55.5549 3.94444 54.8747C4.93306 54.1945 4.93292 54.1943 4.93282 54.1942C4.93282 54.1942 4.93275 54.1941 4.93276 54.1941C4.93278 54.1941 4.93292 54.1943 4.93319 54.1947C4.93372 54.1955 4.93473 54.197 4.93623 54.1991C4.93923 54.2034 4.94416 54.2105 4.95098 54.2203C4.96464 54.2398 4.9859 54.27 5.01453 54.3101C5.0718 54.3905 5.15851 54.5107 5.27286 54.665C5.50164 54.9738 5.84052 55.4185 6.27497 55.9538C7.14537 57.0263 8.39169 58.4529 9.89761 59.8753C12.9703 62.7777 16.8714 65.4207 20.7341 65.4207V67.8207ZM3.51372 53.7547C7.52856 52.2107 10.9903 51.5572 13.9967 51.5572V53.9572C11.3409 53.9572 8.17278 54.5343 4.37516 55.9947L3.51372 53.7547ZM13.9864 51.5572C15.6569 51.5429 17.1863 51.7507 18.5722 52.1045L17.9786 54.4299C16.7864 54.1256 15.4633 53.9446 14.007 53.9571L13.9864 51.5572ZM17.2466 53.885L17.2118 53.8269L19.2693 52.5914L19.3042 52.6495L17.2466 53.885ZM17.2104 53.8246C16.0605 51.8997 15.055 49.8834 14.1984 47.7854L16.4203 46.8781C17.2319 48.8657 18.1835 50.7737 19.2707 52.5938L17.2104 53.8246ZM15.7009 48.4661C14.6474 48.8297 13.6243 48.9976 12.6334 48.9976V46.5976C13.3476 46.5976 14.1065 46.4774 14.9179 46.1974L15.7009 48.4661ZM12.6334 48.9976C7.86318 48.9976 4.39237 45.1266 2.23405 41.7365C1.12276 39.991 0.282982 38.2542 -0.278038 36.9589C-0.559288 36.3095 -0.772293 35.7669 -0.915848 35.3841C-0.987656 35.1926 -1.0422 35.0407 -1.0793 34.9352C-1.09785 34.8825 -1.11205 34.8413 -1.12189 34.8125C-1.12681 34.7981 -1.13063 34.7867 -1.13336 34.7786C-1.13473 34.7746 -1.13582 34.7713 -1.13663 34.7688C-1.13705 34.7676 -1.13739 34.7666 -1.13766 34.7658C-1.13779 34.7654 -1.13795 34.7649 -1.13802 34.7647C-1.13815 34.7643 -1.13827 34.7639 0.000823975 34.3865C1.13992 34.0091 1.13984 34.0088 1.13977 34.0086L1.13972 34.0084C1.13972 34.0084 1.13978 34.0086 1.13992 34.009C1.14018 34.0098 1.14072 34.0114 1.14152 34.0138C1.14312 34.0186 1.14579 34.0265 1.14954 34.0375C1.15701 34.0594 1.16876 34.0935 1.18475 34.139C1.21674 34.2299 1.26568 34.3662 1.33137 34.5414C1.46283 34.892 1.66097 35.3971 1.92427 36.0051C2.45235 37.2243 3.23532 38.8403 4.25858 40.4476C6.36934 43.763 9.2148 46.5976 12.6334 46.5976V48.9976ZM-0.0977859 33.1906C0.808884 33.1158 1.66626 33.0779 2.49149 33.0779V35.4779C1.7399 35.4779 0.948776 35.5124 0.0994339 35.5824L-0.0977859 33.1906ZM2.49298 33.0779C7.24544 33.0838 10.6791 34.2892 13.14 36.0346L11.7516 37.9922C9.75284 36.5746 6.82106 35.4833 2.49001 35.4779L2.49298 33.0779ZM11.2607 37.2019C10.8473 34.6031 10.627 31.9257 10.5988 29.1997L12.9987 29.1748C13.0258 31.7882 13.2369 34.3477 13.6309 36.8249L11.2607 37.2019ZM11.6037 30.3713C6.23814 29.4874 4.41716 24.5837 3.84835 20.5648C3.55589 18.4984 3.56198 16.4976 3.63829 15.0239C3.6766 14.2842 3.73298 13.6704 3.78018 13.2388C3.80379 13.0228 3.82516 12.8521 3.84089 12.7335C3.84875 12.6743 3.85521 12.628 3.85985 12.5956C3.86217 12.5795 3.86403 12.5667 3.86538 12.5576C3.86606 12.553 3.86661 12.5494 3.86703 12.5466C3.86724 12.5452 3.86741 12.5441 3.86755 12.5431C3.86762 12.5427 3.8677 12.5422 3.86774 12.5419C3.86781 12.5415 3.86787 12.5411 5.05402 12.7228C6.24018 12.9046 6.24022 12.9043 6.24026 12.9041C6.24026 12.9041 6.24029 12.9039 6.24029 12.9039C6.24029 12.9039 6.24026 12.9041 6.24019 12.9045C6.24006 12.9054 6.2398 12.9071 6.23941 12.9098C6.23862 12.915 6.23734 12.9238 6.23558 12.936C6.23209 12.9604 6.22677 12.9984 6.22003 13.0492C6.20656 13.1508 6.18744 13.3032 6.16596 13.4997C6.12296 13.8928 6.07068 14.4606 6.03508 15.148C5.96358 16.5288 5.96092 18.3649 6.22467 20.2285C6.76831 24.0695 8.31968 27.398 11.9938 28.0032L11.6037 30.3713ZM5.52 11.617C9.44255 13.2699 12.0303 15.3157 13.681 17.4854L11.7709 18.9385C10.422 17.1654 8.20342 15.3521 4.58804 13.8287L5.52 11.617ZM11.5452 17.9979C12.0949 14.9655 12.6899 13.098 12.7468 12.9255L15.0259 13.6777C14.9995 13.7576 14.4341 15.5165 13.9067 18.426L11.5452 17.9979ZM12.7488 12.9195C12.8287 12.6818 12.9345 12.4584 13.0628 12.2522L15.1006 13.5201C15.0703 13.5688 15.0442 13.6232 15.0239 13.6837L12.7488 12.9195Z" fill="#1D1D1D" mask="url(#path-3-inside-2)"/>
<path d="M58.454 32.4134C60.23 32.4134 61.79 31.3094 61.79 29.2214C61.79 27.1094 60.23 26.0054 58.454 26.0054C56.654 26.0054 55.094 27.1094 55.094 29.2214C55.094 31.3094 56.654 32.4134 58.454 32.4134ZM50.798 36.3974C50.798 36.9974 50.822 37.6934 50.846 38.3894C50.366 37.8374 49.862 37.2854 49.43 36.7814L40.07 26.1254H39.206V42.5654H41.342V32.1734C41.342 31.5734 41.318 31.0214 41.27 30.4214C41.726 30.9494 42.206 31.4774 42.59 31.9094L52.046 42.6854H52.958V26.2454H50.798V36.3974ZM58.454 27.4214C59.366 27.4214 60.158 28.0694 60.158 29.2214C60.158 30.3494 59.366 30.9974 58.454 30.9974C57.518 30.9974 56.726 30.3494 56.726 29.2214C56.726 28.0694 57.518 27.4214 58.454 27.4214ZM55.31 35.2214H61.526V33.9014H55.31V35.2214ZM67.9912 26.4854L63.0472 29.6774L63.9832 31.2854L66.1912 29.9654C66.4312 29.8214 66.5992 29.7014 66.7672 29.5814C66.7192 29.9174 66.7192 30.2294 66.7192 30.5414V42.5654H68.8552V26.4854H67.9912Z" fill="white"/>
</svg>
