<svg width="21" height="26" viewBox="0 0 21 26" fill="none" xmlns="http://www.w3.org/2000/svg">
<path d="M20.3438 10.3765H17.0625V6.48529C17.0625 2.91838 14.1094 0 10.5 0C6.89062 0 3.9375 2.91838 3.9375 6.48529V10.3765H0.65625C0.328125 10.3765 0 10.7007 0 11.025V15.5647C0 21.2718 4.725 25.9412 10.5 25.9412C16.275 25.9412 21 21.2718 21 15.5647V11.025C21 10.7007 20.6719 10.3765 20.3438 10.3765ZM10.5 18.8074C9.38437 18.8074 8.53125 17.9643 8.53125 16.8618C8.53125 15.7593 9.38437 14.9162 10.5 14.9162C11.6156 14.9162 12.4688 15.7593 12.4688 16.8618C12.4688 17.9643 11.6156 18.8074 10.5 18.8074ZM6.5625 10.3765V6.48529C6.5625 4.34515 8.33438 2.59412 10.5 2.59412C12.6656 2.59412 14.4375 4.34515 14.4375 6.48529V10.3765H6.5625Z" fill="#4F4F4F"/>
</svg>
