<svg width="22" height="12" viewBox="0 0 22 12" fill="none" xmlns="http://www.w3.org/2000/svg">
<path d="M0.666016 0.875345C0.791953 0.682232 0.973863 0.585676 1.19775 0.571883C1.3097 0.564986 1.42164 0.558089 1.53359 0.558089C2.43614 0.551192 3.33869 0.544295 4.24125 0.544295C4.70302 0.544295 5.01087 0.744304 5.21377 1.16501C5.7525 2.27541 6.31223 3.37201 6.88594 4.46172C7.12382 4.91691 7.43167 5.33762 7.85146 5.66177C7.94942 5.73764 8.05436 5.80661 8.17331 5.84799C8.43218 5.94455 8.62808 5.86178 8.76101 5.62729C8.96391 5.27555 8.97791 4.88243 9.01989 4.4962C9.12484 3.59961 9.11084 2.70991 8.92893 1.82022C8.81699 1.28916 8.49515 1.00639 7.97041 0.896035C7.70454 0.84086 7.68355 0.771892 7.87245 0.578779C8.08935 0.344286 8.36221 0.192555 8.67706 0.144277C9.88046 -0.0350421 11.0839 -0.0557327 12.2873 0.130483C12.882 0.220142 13.1059 0.427048 13.1548 1.11674C13.1968 1.64779 13.1478 2.18575 13.1478 2.71681C13.1409 3.42719 13.1199 4.13757 13.1269 4.85484C13.1269 5.06175 13.1758 5.28245 13.2528 5.47556C13.4137 5.89627 13.7356 5.95834 14.0854 5.67557C14.6451 5.21348 15.0229 4.61345 15.4077 4.02032C15.9954 3.11683 16.4712 2.16506 16.877 1.17191C17.0939 0.640851 17.1918 0.585676 17.7586 0.585676C18.878 0.578779 19.9975 0.558089 21.1099 0.551192C21.2778 0.551192 21.4597 0.571882 21.6207 0.620161C21.9425 0.70982 22.0405 0.889139 21.9845 1.21329C21.8935 1.70987 21.6626 2.15127 21.3758 2.55128C20.6481 3.57892 19.8925 4.58586 19.1509 5.5997C18.983 5.8273 18.815 6.0549 18.6751 6.29629C18.4302 6.7101 18.4722 7.07563 18.808 7.42048C19.2978 7.91705 19.8086 8.39294 20.3053 8.87572C20.844 9.40678 21.3618 9.96542 21.7536 10.6206C21.8306 10.7517 21.9005 10.9034 21.9425 11.0482C22.0894 11.5793 21.8306 11.869 21.3058 11.9172C20.837 11.9655 20.3613 11.9517 19.8925 11.9655C19.2838 11.9793 18.6681 12 18.0594 12C17.5417 12 17.0659 11.8138 16.6881 11.4896C16.2683 11.131 15.8905 10.7103 15.4987 10.3172C15.2118 10.0275 14.932 9.73783 14.6381 9.45505C14.5611 9.37919 14.4632 9.32401 14.3652 9.26884C14.1064 9.1378 13.9175 9.16539 13.7006 9.3585C13.3228 9.69644 13.2318 10.1516 13.1758 10.6206C13.1478 10.8206 13.1548 11.0275 13.1409 11.2344C13.1129 11.6552 12.91 11.8896 12.4902 11.9241C10.6571 12.069 8.92194 11.8552 7.34771 10.7861C6.29823 10.0758 5.45165 9.19987 4.69602 8.20672C3.08682 6.08938 1.84143 3.76513 0.763967 1.35123C0.721988 1.28226 0.694002 1.22019 0.666016 1.16501C0.666016 1.06846 0.666016 0.971901 0.666016 0.875345Z" fill="#505050"/>
</svg>
