<svg width="10" height="19" viewBox="0 0 10 19" fill="none" xmlns="http://www.w3.org/2000/svg">
<path d="M9.66229 7.56712L9.36511 10.1668C9.33858 10.4151 9.13161 10.6028 8.89281 10.6028H6.2182L6.20759 17.8884C6.20759 18.3189 5.87326 18.6667 5.45933 18.6667H3.57543C3.16151 18.6667 2.82718 18.3189 2.82718 17.8884L2.8378 10.6083H0.821233C0.561202 10.6083 0.348932 10.3875 0.343625 10.1171L0.333008 7.51745C0.333008 7.24147 0.545278 7.0207 0.810616 7.0207H2.82188V4.50384C2.82188 1.58959 4.53066 0 7.03014 0H9.07854C9.33857 0 9.55615 0.220777 9.55615 0.496747V2.68796C9.55615 2.95841 9.34388 3.1847 9.08385 3.1847H7.82615C6.46762 3.1847 6.20228 3.85807 6.20228 4.84053V7.01518H9.18998C9.47655 7.01518 9.69943 7.27459 9.66229 7.56712Z" fill="#505050"/>
</svg>
