<svg width="21" height="16" viewBox="0 0 21 16" fill="none" xmlns="http://www.w3.org/2000/svg">
<path d="M20.5183 4.12954V4.12358C20.4999 3.96863 20.3337 2.58004 19.6383 1.8768C18.8322 1.04841 17.9214 0.947095 17.4845 0.899418C17.4476 0.893459 17.4168 0.893458 17.386 0.887499L17.3491 0.881539C14.7029 0.69679 10.7152 0.672952 10.6722 0.666992H10.666H10.6599C10.6229 0.666992 6.62909 0.690831 3.95832 0.881539L3.92139 0.887499C3.89062 0.893458 3.85986 0.893459 3.82909 0.899418C3.39832 0.947095 2.4937 1.04841 1.68755 1.9066C1.02293 2.60387 0.832163 3.96267 0.813702 4.11166V4.12954C0.807548 4.1951 0.666016 5.73864 0.666016 7.28815V8.73634C0.666016 10.2858 0.807548 11.8294 0.813702 11.8949V11.9069C0.832163 12.0618 0.99832 13.4206 1.6937 14.1239C2.45063 14.9224 3.40447 15.0297 3.92139 15.0893C4.00139 15.1012 4.07524 15.1072 4.11831 15.1132L4.16755 15.1191C5.6937 15.2621 10.4814 15.3277 10.6845 15.3337H10.6906H10.6968C10.7337 15.3337 14.7276 15.3098 17.3737 15.1191L17.4106 15.1132C17.4414 15.1072 17.4845 15.1072 17.5214 15.1012C17.9522 15.0595 18.8506 14.9642 19.6445 14.1179C20.3091 13.4206 20.4999 12.0618 20.5183 11.9128V11.8949C20.5245 11.8294 20.666 10.2858 20.666 8.73634V7.28815C20.666 5.73864 20.5245 4.1951 20.5183 4.12954ZM13.3306 8.15826L9.43525 10.9831C9.11525 11.2156 8.65371 10.995 8.65371 10.6077V4.95197C8.65371 4.56459 9.10909 4.34409 9.43525 4.57651L13.3306 7.40138C13.5891 7.59209 13.5891 7.96755 13.3306 8.15826Z" fill="#505050"/>
</svg>
