<svg width="17" height="17" viewBox="0 0 17 17" fill="none" xmlns="http://www.w3.org/2000/svg">
<path d="M8.51249 5.81543C6.99421 5.81543 5.76367 7.0361 5.76367 8.53893C5.76367 10.0602 6.98197 11.2931 8.488 11.2931C9.99404 11.2931 11.2307 10.0724 11.2307 8.57573C11.2307 7.0545 10.0124 5.81543 8.51249 5.81543Z" fill="#505050"/>
<path d="M16.6736 5.33013C16.643 4.53271 16.5451 3.74756 16.2206 3.01148C15.639 1.70494 14.635 0.907516 13.2637 0.557878C12.6392 0.398394 11.9964 0.36159 11.3597 0.355456C9.63938 0.343188 7.91908 0.324786 6.19878 0.337054C5.38454 0.343188 4.57031 0.349322 3.77444 0.551744C1.91333 1.0302 0.811357 2.22633 0.462399 4.10333C0.34608 4.71673 0.321592 5.35467 0.309347 5.98647C0.284859 7.59971 0.284862 9.21909 0.297106 10.8323C0.303228 11.6543 0.30935 12.4885 0.511379 13.2982C0.9889 15.1691 2.19495 16.2671 4.0683 16.6228C4.58255 16.721 5.11517 16.721 5.63555 16.7639C5.68453 16.77 5.73962 16.7823 5.7886 16.7884C7.59461 16.7884 9.3945 16.7884 11.2005 16.7884C11.3719 16.7762 11.5434 16.7578 11.7148 16.7516C12.4923 16.721 13.2637 16.629 13.9861 16.3161C15.3207 15.7395 16.1288 14.7152 16.4839 13.3166C16.6369 12.6971 16.6675 12.0591 16.6859 11.4212C16.6859 11.3721 16.7043 11.3169 16.7104 11.2678C16.7104 9.45832 16.7104 7.65492 16.7104 5.84539C16.6981 5.67364 16.6798 5.50188 16.6736 5.33013ZM8.48844 12.7829C6.15593 12.7768 4.27033 10.8814 4.27645 8.53208C4.28257 6.20116 6.17429 4.31802 8.51292 4.32416C10.8454 4.33029 12.731 6.2257 12.7249 8.57502C12.7127 10.9059 10.8209 12.7891 8.48844 12.7829ZM13.1841 4.66766C12.6392 4.66766 12.1923 4.21374 12.1923 3.66782C12.1923 3.12803 12.6392 2.68024 13.1779 2.68024C13.7289 2.68024 14.1758 3.11576 14.1758 3.66782C14.1758 4.21988 13.7351 4.66153 13.1841 4.66766Z" fill="#505050"/>
</svg>
