<svg xmlns="http://www.w3.org/2000/svg" viewBox="0 0 48 48"><path fill="#1B1B1B" fill-rule="evenodd" d="M45.714 48H35.232c-2.036 0-3.056-2.462-1.616-3.902l3.221-3.221-8.571-8.571a2.856 2.856 0 1 1 4.04-4.04l8.571 8.571 3.221-3.221c1.44-1.44 3.902-.42 3.902 1.617v10.481A2.285 2.285 0 0 1 45.714 48zm-1.616-33.616l-3.221-3.221-8.571 8.571a2.856 2.856 0 1 1-4.04-4.04l8.571-8.571-3.221-3.221C32.176 2.462 33.196 0 35.232 0h10.482A2.285 2.285 0 0 1 48 2.286v10.482c0 2.036-2.462 3.056-3.902 1.616zm-26.384 6.187a2.848 2.848 0 0 1-2.02-.837l-8.571-8.571-3.221 3.221C2.462 15.824 0 14.804 0 12.768V2.286A2.285 2.285 0 0 1 2.286 0h10.481c2.037 0 3.057 2.462 1.617 3.902l-3.221 3.221 8.571 8.571a2.856 2.856 0 0 1-2.02 4.877zM3.902 33.616l3.221 3.221 8.571-8.571a2.856 2.856 0 1 1 4.04 4.04l-8.571 8.571 3.221 3.221c1.44 1.44.42 3.902-1.617 3.902H2.286A2.285 2.285 0 0 1 0 45.714V35.233c0-2.037 2.462-3.057 3.902-1.617z"/></svg>