<svg xmlns="http://www.w3.org/2000/svg" viewBox="0 0 41 53"><path fill="#1B1B1B" fill-rule="evenodd" d="M38.385 15.324L18.129 35.865a5.543 5.543 0 0 1-2.256 1.384L2.894 41.38c-1.711.54-3.322-1.092-2.778-2.825l4.067-13.124a5.649 5.649 0 0 1 1.378-2.284L25.807 2.606a5.51 5.51 0 0 1 7.856 0l4.722 4.772c2.167 2.195 2.167 5.752 0 7.946zm-7.078-8.745a2.206 2.206 0 0 0-3.144 0L9.306 25.702a2.275 2.275 0 0 0 0 3.185 2.207 2.207 0 0 0 3.145 0L31.307 9.764a2.262 2.262 0 0 0 0-3.185zM2.783 47.36H37.23c1.534 0 2.778 1.259 2.778 2.814 0 1.554-1.244 2.813-2.778 2.813H2.783c-1.534 0-2.778-1.259-2.778-2.813 0-1.555 1.244-2.814 2.778-2.814z"/></svg>