<svg xmlns="http://www.w3.org/2000/svg" viewBox="0 0 49 49"><path fill="#1B1B1B" fill-rule="evenodd" d="M47.288 47.294a5.832 5.832 0 0 1-8.248 0l-7.903-7.902a20.889 20.889 0 0 1-10.136 2.612C9.405 42.004.005 32.603.005 21.007.005 9.412 9.405.011 21.001.011c11.596 0 20.996 9.401 20.996 20.996 0 3.678-.951 7.131-2.612 10.137l7.903 7.902a5.833 5.833 0 0 1 0 8.248zM21.001 5.844c-8.361 0-15.164 6.802-15.164 15.163 0 8.362 6.803 15.164 15.164 15.164 8.362 0 15.164-6.802 15.164-15.164 0-8.361-6.802-15.163-15.164-15.163zm5.832 17.496H15.169a2.333 2.333 0 1 1 0-4.665h11.664a2.332 2.332 0 1 1 0 4.665z"/></svg>