<svg xmlns="http://www.w3.org/2000/svg" viewBox="0 0 48 48"><path fill="#1B1B1B" fill-rule="evenodd" d="M41.143 0H6.857A6.862 6.862 0 0 0 0 6.857v34.286A6.862 6.862 0 0 0 6.857 48h34.286A6.862 6.862 0 0 0 48 41.143V6.857A6.862 6.862 0 0 0 41.143 0zM24 5.714A2.293 2.293 0 0 1 26.286 8 2.293 2.293 0 0 1 24 10.286 2.293 2.293 0 0 1 21.714 8 2.293 2.293 0 0 1 24 5.714zm-8 0A2.293 2.293 0 0 1 18.286 8 2.293 2.293 0 0 1 16 10.286 2.293 2.293 0 0 1 13.714 8 2.293 2.293 0 0 1 16 5.714zm-8 0A2.293 2.293 0 0 1 10.286 8 2.293 2.293 0 0 1 8 10.286 2.293 2.293 0 0 1 5.714 8 2.293 2.293 0 0 1 8 5.714zm34.286 35.429c0 .628-.515 1.143-1.143 1.143H6.857a1.147 1.147 0 0 1-1.143-1.143V16c0-.629.515-1.143 1.143-1.143h34.286c.628 0 1.143.514 1.143 1.143v25.143z"/></svg>