<svg xmlns="http://www.w3.org/2000/svg" fill="none" viewBox="0 0 534 594"><path fill="#fff" stroke="#828282" stroke-linecap="round" stroke-linejoin="round" stroke-miterlimit="10" d="M378.769 19.076H44.116a2 2 0 0 0-2 2v452.119a2 2 0 0 0 2 2h334.653a2 2 0 0 0 2-2V21.076a2 2 0 0 0-2-2z"/><path fill="#828282" stroke="#828282" d="M83.98 44.091H193.98a4.7 4.7 0 1 1 0 9.4H83.981a4.7 4.7 0 1 1 0-9.4z"/><path fill="url(#paint0_linear)" d="M191.327 146.068c-.512-.8-1.747-.502-1.837.444l-6.051 63.276a1 1 0 0 1-1.27.866l-47.324-13.482c-.916-.261-1.643.784-1.081 1.552l34.945 47.737a1 1 0 0 1-.083 1.281l-33.38 34.997a1 1 0 0 0 .654 1.688l35.893 2.498a1 1 0 0 1 .912 1.187l-7.629 39.475c-.184.949.952 1.58 1.661.924l57.173-52.914a1 1 0 0 1 1.458.107l22.731 28.235c.624.776 1.874.263 1.773-.728l-3.309-32.634c-.04-.4.163-.785.515-.978l36.696-20.092a1 1 0 0 0-.007-1.758l-23.968-12.883a1 1 0 0 1-.503-1.099l10.31-46.139a1 1 0 0 0-1.367-1.139l-39.297 16.735a1 1 0 0 1-1.234-.381l-36.381-56.775z"/><path fill="url(#paint1_linear)" stroke="#828282" d="M79.28 115.654h65.889v65.858H79.28v-65.858z"/><path stroke="#1D1D1D" stroke-linecap="round" stroke-linejoin="round" stroke-miterlimit="10" d="M251.699 208.259h-85.468v85.43h85.468v-85.43z"/><path stroke="#828282" stroke-linecap="round" stroke-linejoin="round" stroke-miterlimit="10" d="M242.533 115.154h-66.888v66.858h66.888v-66.858zM339.397 115.154h-66.888v66.858h66.888v-66.858zM145.669 217.669H78.78v66.858h66.889v-66.858zM145.669 323.155H78.78v66.858h66.889v-66.858zM242.533 323.155h-66.888v66.858h66.888v-66.858zM339.397 217.669h-66.888v66.858h66.888v-66.858zM272.509 115.154l66.888 66.858M175.645 115.154l66.888 66.858M78.78 217.669l66.889 66.858M79.524 1v29.22M117.179 1v29.22M154.835 1v29.22M192.49 1v29.22M230.146 1v29.22M305.705 1v29.22M267.802 1v29.22M343.361 1v29.22"/><path fill="#fff" d="M188.279 246.641c-7.432-1.734-9.167 3.962-8.423 6.19.743 2.476 2.725 3.962 9.166 3.467"/><path stroke="#1D1D1D" stroke-linecap="round" stroke-linejoin="round" stroke-miterlimit="10" d="M188.279 246.641c-7.432-1.734-9.167 3.962-8.423 6.19.743 2.476 2.725 3.962 9.166 3.467"/><path fill="#fff" d="M228.907 245.898c7.68-1.733 9.414 3.962 8.671 6.191-.743 2.476-3.468 2.971-10.157 2.723"/><path stroke="#1D1D1D" stroke-linecap="round" stroke-linejoin="round" stroke-miterlimit="10" d="M228.907 245.898c7.68-1.733 9.414 3.962 8.671 6.191-.743 2.476-3.468 2.971-10.157 2.723"/><path fill="#fff" stroke="#1D1D1D" stroke-linecap="round" stroke-linejoin="round" stroke-miterlimit="10" d="M208.345 268.432c11.083 0 20.067-8.98 20.067-20.058 0-11.077-8.984-20.057-20.067-20.057-11.082 0-20.066 8.98-20.066 20.057 0 11.078 8.984 20.058 20.066 20.058z"/><path fill="#1D1D1D" d="M195.959 241.193c3.716-.743 21.8-1.238 25.516-1.238 0 0 2.478 3.714 7.185 5.448-1.735-9.41-10.158-17.334-20.067-17.334-10.405 0-19.819 8.172-20.314 21.791 5.698-7.181 7.68-8.667 7.68-8.667z"/><path fill="#fff" d="M208.345 254.069l.248 10.648-3.964-3.219"/><path stroke="#1D1D1D" stroke-linecap="round" stroke-linejoin="round" stroke-miterlimit="10" d="M208.345 254.069l.248 10.648-3.964-3.219"/><path fill="#fff" d="M194.224 355.346c-5.45-1.238-6.688 2.724-6.193 4.458.495 1.733 1.982 2.723 6.689 2.476"/><path stroke="#1D1D1D" stroke-linecap="round" stroke-linejoin="round" stroke-miterlimit="10" d="M194.224 355.346c-5.45-1.238-6.688 2.724-6.193 4.458.495 1.733 1.982 2.723 6.689 2.476"/><path fill="#fff" d="M223.209 354.852c5.451-1.238 6.689 2.724 6.194 4.457-.496 1.733-2.478 2.229-7.184 1.981"/><path stroke="#1D1D1D" stroke-linecap="round" stroke-linejoin="round" stroke-miterlimit="10" d="M223.209 354.852c5.451-1.238 6.689 2.724 6.194 4.457-.496 1.733-2.478 2.229-7.184 1.981"/><path fill="#fff" stroke="#1D1D1D" stroke-linecap="round" stroke-linejoin="round" stroke-miterlimit="10" d="M208.593 370.947c7.935 0 14.369-6.43 14.369-14.362s-6.434-14.362-14.369-14.362c-7.936 0-14.369 6.43-14.369 14.362s6.433 14.362 14.369 14.362z"/><path fill="#1D1D1D" d="M199.427 351.385c2.725-.496 15.607-.991 18.332-.743 0 0 1.734 2.724 5.203 3.714-1.239-6.686-7.432-12.381-14.369-12.381-7.432 0-14.121 5.695-14.616 15.6 4.211-5.2 5.45-6.19 5.45-6.19z"/><path fill="#fff" d="M208.345 360.546l.248 7.429-2.725-2.229"/><path stroke="#1D1D1D" stroke-linecap="round" stroke-linejoin="round" stroke-miterlimit="10" d="M208.345 360.546l.248 7.429-2.725-2.229"/><path fill="#fff" stroke="#1D1D1D" stroke-linecap="round" stroke-linejoin="round" stroke-miterlimit="10" d="M26.012 338.013l38.151-41.601 36.665 33.677-36.17 39.371c-14.616 15.848-13.625 40.61 2.478 55.22l21.305 19.562c15.855 14.61 40.628 13.619 55.245-2.476l36.169-39.372 36.665 33.677-38.151 41.6c-35.426 38.629-95.626 41.105-134.025 5.695l-12.387-11.39c-38.894-35.163-41.371-95.335-5.945-133.963z"/><path fill="#1D1D1D" stroke="#1D1D1D" stroke-linecap="round" stroke-linejoin="round" stroke-miterlimit="10" d="M31.71 472.223l5.946 5.448 39.886-43.581-10.405-9.41c-15.855-14.61-17.094-39.372-2.478-55.22l36.17-39.371-36.665-33.677-38.151 41.6c-35.426 38.629-32.949 98.801 5.698 134.211z"/><path fill="#fff" stroke="#1D1D1D" stroke-linecap="round" stroke-linejoin="round" stroke-miterlimit="10" d="M328.248 265.708s-2.229 8.171 4.955 11.39l1.486 30.705h14.369l-1.486-30.953c2.725-1.733 4.954-4.952 6.193-10.4 2.725-11.638-11.148-16.838-18.332-12.381-7.185 4.457-9.662 8.915-9.662 8.915l2.477 2.724z"/><path fill="#1D1D1D" d="M335.928 250.355c-1.982 4.953 1.982 8.915 5.45 10.4 5.203 2.476 1.239 8.172-2.725 8.172-2.229 0 3.469 5.943 7.185 7.428l1.486.743c5.202-2.971 7.432-8.666 7.432-12.133-.248-6.934-14.121-22.038-18.828-14.61z"/><path fill="#fff" stroke="#1D1D1D" stroke-linecap="round" stroke-linejoin="round" stroke-miterlimit="10" d="M453.602 548.492l16.103.742s1.238 14.858 20.562 14.115l-.991-51.258-37.656 1.486 1.982 34.915z"/><path stroke="#1D1D1D" stroke-linecap="round" stroke-linejoin="round" stroke-miterlimit="10" d="M469.705 549.235v-4.457"/><path fill="#fff" stroke="#1D1D1D" stroke-linecap="round" stroke-linejoin="round" stroke-miterlimit="10" d="M175.644 550.968l-3.716 10.648s-14.616-3.714-20.066 14.61l48.556 16.343 11.396-35.905-36.17-5.696z"/><path fill="#E00815" d="M459.052 512.339c-31.957-1.981-65.649-7.429-80.018-39.867-17.093-38.381-5.45-83.696-9.166-124.306-.991-10.4-8.175-19.314-19.323-19.314-4.459 0-9.414 1.981-12.882 5.2-1.982.495-3.964 1.238-5.946 2.723-70.852 44.82-134.768 137.183-158.55 217.66 12.634 2.971 25.021 6.685 37.408 10.647 18.58-63.391 68.87-142.134 121.637-181.506-.495 38.876-3.468 78.001 15.855 113.658 22.544 41.6 66.889 51.258 110.242 54.229.248-13.124.496-26.248.743-39.124z"/><path stroke="#fff" stroke-linecap="round" stroke-linejoin="round" stroke-miterlimit="10" d="M331.965 383.328l9.413-2.972"/><path stroke="#1D1D1D" stroke-linecap="round" stroke-linejoin="round" stroke-miterlimit="10" d="M171.68 561.616l6.937 3.219"/><path fill="#1D1D1D" stroke="#1D1D1D" stroke-linecap="round" stroke-linejoin="round" stroke-miterlimit="10" d="M342.37 294.927c-26.756-1.238-35.179 10.152-35.922 32.438-.743 22.286-.743 24.515-.743 24.515l71.1 2.971s-.743-23.772-2.725-33.676c-1.734-10.401-2.478-24.763-31.71-26.248z"/><path fill="#1D1D1D" stroke="#1D1D1D" stroke-linecap="round" stroke-linejoin="round" stroke-miterlimit="10" d="M448.895 395.213c-15.607-42.343-47.565-77.01-89.184-96.077-16.351-7.428-26.508 18.572-10.157 26.248 33.692 15.353 60.199 44.572 73.081 78.991 8.671-2.724 17.59-5.943 26.26-9.162z"/><path fill="#fff" d="M447.657 422.205c-.248-4.21-1.487-9.162-1.487-9.162s1.239 4.704 2.973 8.666c1.982-.743 3.964-1.485 5.946-2.476-.496-5.943-2.477-14.857-6.193-24.019l-26.26 9.162c1.734 14.362-.991 21.543 2.477 22.286 3.716.743 3.716-13.372 6.441-9.657 1.734 2.228 2.23 6.933 3.716 9.904"/><path stroke="#1D1D1D" stroke-linecap="round" stroke-linejoin="round" stroke-miterlimit="10" d="M447.657 422.205c-.248-4.21-1.487-9.162-1.487-9.162s1.239 4.704 2.973 8.666c1.982-.743 3.964-1.485 5.946-2.476-.496-5.943-2.477-14.857-6.193-24.019l-26.26 9.162c1.734 14.362-.991 21.543 2.477 22.286 3.716.743 3.716-13.372 6.441-9.657 1.734 2.228 2.23 6.933 3.716 9.904"/><path fill="#fff" stroke="#1D1D1D" stroke-linecap="round" stroke-linejoin="round" stroke-miterlimit="10" d="M428.086 408.833l8.175 13.124c3.716-.248 7.68-1.486 11.148-3.714 11.396-6.934 14.616-21.791 7.68-33.182-5.698-9.409-15.607-14.362-26.756-10.647 3.221 6.686 7.185 12.876 10.901 19.067.991 1.485.495 3.714-.991 4.704-3.964 2.229-7.68 6.191-10.157 10.648z"/><path stroke="#1D1D1D" stroke-linecap="round" stroke-linejoin="round" stroke-miterlimit="10" d="M429.572 413.538c-5.946 4.209-13.378.495-18.828-10.153M435.27 405.614l5.697 8.914"/><path fill="#fff" stroke="#1D1D1D" stroke-linecap="round" stroke-linejoin="round" stroke-miterlimit="10" d="M449.391 422.452c-3.221-6.686 4.459-9.409 6.193-7.181 1.734 2.229-3.964 11.638-6.193 7.181z"/><path fill="#fff" stroke="#1D1D1D" stroke-linecap="round" stroke-linejoin="round" stroke-miterlimit="10" d="M441.463 425.176c-1.982-8.172 7.184-9.162 8.423-6.191 1.238 2.972-7.185 11.638-8.423 6.191z"/><path fill="#fff" d="M438.738 421.213c4.212-4.952 6.689 2.477 4.707 5.448-1.982 2.971-7.184 3.467-8.175.248"/><path stroke="#1D1D1D" stroke-linecap="round" stroke-linejoin="round" stroke-miterlimit="10" d="M438.738 421.213c4.212-4.952 6.689 2.477 4.707 5.448-1.982 2.971-7.184 3.467-8.175.248"/><path stroke="#fff" stroke-linecap="round" stroke-linejoin="round" stroke-miterlimit="10" d="M365.657 303.346c3.716 8.667 9.661 32.934 9.661 32.934M371.355 356.584l-58.961-3.219"/><path fill="#1D1D1D" stroke="#1D1D1D" stroke-linecap="round" stroke-linejoin="round" stroke-miterlimit="10" d="M317.596 300.127c-17.094 10.647-33.939 17.333-54.749 16.095-17.589-1.238-35.922-12.381-36.913-31.448v-.248c-9.166 2.229-18.084 5.2-27.003 7.924 4.707 25.01 24.278 44.324 49.3 50.02 30.471 6.685 59.951-4.457 85.468-20.553 15.112-9.905-.743-31.448-16.103-21.79z"/><path fill="#fff" d="M225.687 283.041c5.202-8.419-2.23-14.114-6.194-14.609z"/><path stroke="#1D1D1D" stroke-linecap="round" stroke-linejoin="round" stroke-miterlimit="10" d="M225.687 283.041c5.202-8.419-2.23-14.114-6.194-14.609"/><path fill="#fff" d="M225.687 284.527c-4.212-12.877-13.13-31.201-15.855-27.486-2.726 3.714 3.716 18.819 3.716 18.819s-5.698-8.419-8.671-6.934c-4.212 1.981 0 10.896 0 10.896s-2.23-5.943-6.193-5.448c-3.964.495-2.23 5.695 0 18.076"/><path stroke="#1D1D1D" stroke-linecap="round" stroke-linejoin="round" stroke-miterlimit="10" d="M225.687 284.527c-4.212-12.877-13.13-31.201-15.855-27.486-2.726 3.714 3.716 18.819 3.716 18.819s-5.698-8.419-8.671-6.934c-4.212 1.981 0 10.896 0 10.896s-2.23-5.943-6.193-5.448c-3.964.495-2.23 5.695 0 18.076"/><path fill="#fff" d="M97.36 145.858c-5.202-1.238-6.193 2.724-5.698 4.21.496 1.733 1.734 2.724 6.194 2.476"/><path stroke="#1D1D1D" stroke-linecap="round" stroke-linejoin="round" stroke-miterlimit="10" d="M97.36 145.858c-5.202-1.238-6.193 2.724-5.698 4.21.496 1.733 1.734 2.724 6.194 2.476"/><path fill="#fff" d="M125.106 145.364c5.203-1.239 6.442 2.723 5.946 4.209-.495 1.486-2.477 1.981-6.937 1.733"/><path stroke="#1D1D1D" stroke-linecap="round" stroke-linejoin="round" stroke-miterlimit="10" d="M125.106 145.364c5.203-1.239 6.442 2.723 5.946 4.209-.495 1.486-2.477 1.981-6.937 1.733"/><path fill="#fff" stroke="#1D1D1D" stroke-linecap="round" stroke-linejoin="round" stroke-miterlimit="10" d="M110.985 160.468c7.525 0 13.626-6.097 13.626-13.619 0-7.522-6.101-13.619-13.626-13.619-7.525 0-13.625 6.097-13.625 13.619 0 7.522 6.1 13.619 13.625 13.619z"/><path fill="#1D1D1D" d="M102.562 142.144c2.478-.495 14.864-.99 17.342-.743 0 0 1.734 2.477 4.954 3.715-1.238-6.438-6.936-11.638-13.625-11.638-7.184 0-13.625 5.447-13.873 14.857 3.964-5.2 5.202-6.191 5.202-6.191z"/><path fill="#fff" d="M110.985 150.812l.248 7.181-2.725-2.229"/><path stroke="#1D1D1D" stroke-linecap="round" stroke-linejoin="round" stroke-miterlimit="10" d="M110.985 150.812l.248 7.181-2.725-2.229"/><path fill="#fff" stroke="#1D1D1D" stroke-linecap="round" stroke-linejoin="round" stroke-miterlimit="10" d="M467.235 73.016c-23.692-31.34-62.462-33.33-90.628-11.608-28.166 21.723-33.302 62.516-11.597 90.706 19.55 25.205 54.178 32.004 81.349 17.412a62.925 62.925 0 0 0 9.279-5.97c2.982-2.322 5.633-4.809 8.118-7.462 20.876-22.552 22.864-57.541 3.479-83.078zm-17.231 83.244c-19.881 15.421-47.053 15.09-66.272.829-3.977-2.985-7.787-6.467-10.935-10.613-18.557-24.044-14.249-58.701 9.775-77.44 24.024-18.572 56.994-16.914 77.373 9.784 18.225 24.21 14.083 58.702-9.941 77.44z"/><path stroke="#1D1D1D" stroke-linecap="round" stroke-linejoin="round" stroke-miterlimit="10" d="M375.332 94.744c3.222-6.853 8.3-12.597 14.484-16.746M371.594 113.814c-.126-2.119-.021-4.277.219-6.339"/><path fill="#fff" stroke="#1D1D1D" stroke-linecap="round" stroke-linejoin="round" stroke-miterlimit="10" d="M533.342 246.137l-17.396 13.431-69.587-89.876a62.762 62.762 0 0 0 9.279-5.97c2.982-2.321 5.633-4.809 8.118-7.462l69.586 89.877z"/><path fill="#fff" stroke="#1D1D1D" stroke-linecap="round" stroke-linejoin="round" stroke-miterlimit="10" d="M473.695 169.151l-17.29 13.403 8.623 11.143 17.29-13.402-8.623-11.144z"/><defs><linearGradient id="paint0_linear" x1="208.759" x2="208.759" y1="180.684" y2="347.468" gradientUnits="userSpaceOnUse"><stop stop-color="#E00815"/><stop offset=".599" stop-color="#F0DBDC"/><stop offset="1" stop-color="#EBEBEB"/></linearGradient><linearGradient id="paint1_linear" x1="112.205" x2="112.205" y1="101.7" y2="322.7" gradientUnits="userSpaceOnUse"><stop stop-color="#E00815"/><stop offset=".37" stop-color="#fff"/></linearGradient></defs></svg>