<svg xmlns="http://www.w3.org/2000/svg" fill="none" viewBox="0 0 38 35"><path fill="#C4C4C4" d="M0 8.162a2 2 0 0 1 2-2h34a2 2 0 0 1 2 2v11.351H0V8.164z"/><path fill="#1D1D1D" d="M0 19.514h38v13.405a2 2 0 0 1-2 2H2a2 2 0 0 1-2-2V19.514z"/><path fill="#F7F7F7" d="M13.3 22.937c-1.14 0-1.9-.753-1.9-1.883v-3.766c0-1.13.76-1.883 1.9-1.883s1.9.753 1.9 1.883v3.766c0 1.13-.76 1.883-1.9 1.883zm11.4 0c-1.14 0-1.9-.753-1.9-1.883v-3.766c0-1.13.76-1.883 1.9-1.883s1.9.753 1.9 1.883v3.766c0 1.13-.76 1.883-1.9 1.883z"/><path fill="#C4C4C4" fill-rule="evenodd" d="M24.703 0a2 2 0 0 1 2 2V8.216h-4.108V4.108h-7.19v4.108h-4.108V2a2 2 0 0 1 2-2h11.406z" clip-rule="evenodd"/></svg>