<svg xmlns="http://www.w3.org/2000/svg" fill="none" viewBox="0 0 37 37"><path fill="#AC0610" d="M35.15 0h-22.2c-1.11 0-1.85.74-1.85 1.85v7.4h14.8c1.11 0 1.85.74 1.85 1.85v14.8h7.4c1.11 0 1.85-.74 1.85-1.85V1.85C37 .74 36.26 0 35.15 0z" opacity=".5"/><path fill="#1D1D1D" d="M1.85 18.5h14.8c1.11 0 1.85.74 1.85 1.85v14.8c0 1.11-.74 1.85-1.85 1.85H1.85C.74 37 0 36.26 0 35.15v-14.8c0-1.11.74-1.85 1.85-1.85z"/><path fill="#AC0610" d="M25.9 9.25H7.4c-1.11 0-1.85.74-1.85 1.85v7.4h11.1c1.11 0 1.85.74 1.85 1.85v11.1h7.4c1.11 0 1.85-.74 1.85-1.85V11.1c0-1.11-.74-1.85-1.85-1.85z"/></svg>