<svg xmlns="http://www.w3.org/2000/svg" fill="none" viewBox="0 0 547 738"><g clip-path="url(#clip0)"><path fill="url(#paint0_linear)" d="M273.374 738c150.981 0 273.374-122.538 273.374-273.697S424.355 190.606 273.374 190.606C122.394 190.606 0 313.144 0 464.303S122.394 738 273.374 738z"/><path stroke="#1D1D1D" stroke-linecap="round" stroke-linejoin="round" stroke-miterlimit="10" d="M194.405 46.33v582.644M212.01 92.407h-16.85M283.434 92.407h-71.425v83.595h71.425V92.407zM228.608 110.537h29.676M228.608 122.37h20.371"/><path fill="#1D1D1D" stroke="#1D1D1D" d="M229.108 143.014h8.808v19.143h-8.808v-19.143zM243.443 138.481h8.808v23.676h-8.808v-23.676zM258.03 145.028h8.808v17.129h-8.808v-17.129z"/><path fill="#fff" stroke="#1D1D1D" stroke-linecap="round" stroke-linejoin="round" stroke-miterlimit="10" d="M198.68 32.48c8.048 20.9-3.772 44.82-3.772 44.82s-24.395-10.072-32.443-31.222c-7.796-20.9 3.772-44.82 3.772-44.82s24.647 10.072 32.443 31.223zM272.619 229.382c-29.676 27.193-76.957 23.417-76.957 23.417s.503-47.589 30.179-74.531c29.677-26.941 76.958-23.416 76.958-23.416s-.755 47.337-30.18 74.53z"/><path stroke="#1D1D1D" stroke-linecap="round" stroke-linejoin="round" stroke-miterlimit="10" d="M194.907 77.048l-14.335-37.769M195.662 252.798l64.634-62.192"/><path fill="#fff" stroke="#1D1D1D" stroke-linecap="round" stroke-linejoin="round" stroke-miterlimit="10" d="M181.579 474.123c-31.94 38.272-90.538 41.797-90.538 41.797s-7.042-58.415 24.646-96.688c31.688-38.272 90.538-41.797 90.538-41.797s7.042 58.416-24.646 96.688zM216.537 276.215h-109.4v80.825h109.4v-80.825z"/><path stroke="#1D1D1D" stroke-linecap="round" stroke-linejoin="round" stroke-miterlimit="10" d="M107.136 276.215h-16.85M129.017 339.163l14.335-21.15 14.838 4.28 30.431-29.963"/><path stroke="#1D1D1D" stroke-linecap="round" stroke-linejoin="round" stroke-miterlimit="10" d="M180.573 292.33l9.808-2.518v8.813M145.615 289.812h-16.598v8.813h16.598v-8.813zM90.286 178.52v460.274"/><path fill="#fff" stroke="#1D1D1D" stroke-linecap="round" stroke-linejoin="round" stroke-miterlimit="10" d="M71.173 326.825c22.634 25.431 18.862 65.718 18.862 65.718s-40.24-1.259-62.622-26.69C4.778 340.422 8.55 300.135 8.55 300.135s40.239 1.259 62.622 26.69zM125.496 157.873c-8.802 21.151-34.203 30.719-34.203 30.719s-11.066-24.928-2.264-46.078c8.802-21.151 34.203-30.719 34.203-30.719s11.066 24.928 2.264 46.078z"/><path fill="#fff" stroke="#1D1D1D" stroke-linecap="round" stroke-linejoin="round" stroke-miterlimit="10" d="M64.633 178.268c-8.299-11.582-5.03-28.2-5.03-28.2s16.6 2.266 24.899 13.848c8.299 11.583 5.03 28.201 5.03 28.201s-16.6-2.266-24.898-13.849z"/><path stroke="#1D1D1D" stroke-linecap="round" stroke-linejoin="round" stroke-miterlimit="10" d="M90.79 515.92l54.825-71.256M54.323 346.213l35.712 46.33M74.693 171.218l14.838 20.899M111.663 142.514l-20.371 46.078"/><path fill="#fff" stroke="#1D1D1D" stroke-linecap="round" stroke-linejoin="round" stroke-miterlimit="10" d="M171.52 646.097l52.059-1.763s-1.509-24.927-1.257-37.013c.251-12.086-36.215-5.036-36.215-5.036l-.503 25.934s-14.587 5.54-14.084 17.878z"/><path stroke="#1D1D1D" stroke-linecap="round" stroke-linejoin="round" stroke-miterlimit="10" d="M185.855 626.457h10.563"/><path fill="#fff" stroke="#1D1D1D" stroke-linecap="round" stroke-linejoin="round" stroke-miterlimit="10" d="M445.649 641.565l29.676-42.805s-20.623-13.596-30.431-21.15c-9.557-7.302-25.652 26.186-25.652 26.186l20.371 15.863s-4.276 14.856 6.036 21.906z"/><path stroke="#1D1D1D" stroke-linecap="round" stroke-linejoin="round" stroke-miterlimit="10" d="M438.355 618.4l6.288-8.561"/><path fill="#1D1D1D" d="M308.585 373.155c-7.545-7.553-22.886-8.812-30.179 0-55.329 65.97-89.029 153.593-94.562 239.454 13.077 3.525 42.251 7.05 42.251 6.295 3.772-76.293 33.197-157.118 82.49-215.534 7.293-8.561 8.551-21.402 0-30.215z"/><path fill="#1D1D1D" d="M423.014 612.86c9.808-10.323 19.868-22.409 29.425-32.985-64.886-60.429-102.358-136.974-104.873-225.856-.755-27.445-43.509-27.697-42.754 0 2.766 100.213 44.514 190.857 118.202 258.841z"/><path stroke="#fff" stroke-linecap="round" stroke-linejoin="round" stroke-miterlimit="10" d="M309.087 400.852l-9.305-3.273"/><path fill="#fff" d="M398.368 410.42c-9.054 1.008-18.359 2.267-27.413 3.525 0 .252 0 .504-.252.756-.503 4.029.503 7.805 2.264 11.33 1.006 1.763 2.515 2.518 4.024 2.518 6.035-2.266 12.323-3.021 18.61-3.021 2.012-4.784 2.767-9.82 2.767-15.108z"/><path fill="#1D1D1D" stroke="#1D1D1D" stroke-linecap="round" stroke-linejoin="round" stroke-miterlimit="10" d="M266.333 328.084c-4.024 15.612-14.838 28.453-29.928 34.496-17.353 7.05-35.963-.252-53.568 4.029l9.808 30.215c12.575.503 22.383 1.258 33.449.251 11.317-1.007 22.383-4.532 32.191-10.071 19.114-10.827 29.677-30.467 35.209-51.618 5.03-19.891-22.131-26.941-27.161-7.302z"/><path fill="#fff" stroke="#1D1D1D" stroke-linecap="round" stroke-linejoin="round" stroke-miterlimit="10" d="M347.817 363.587l-69.412 9.568c-22.383-53.631-10.06-58.415 4.778-63.955 2.515-1.007 5.03-1.762 7.545-3.021 2.766-1.259 5.281-2.267 7.545-3.022 22.131-6.546 30.179 12.338 33.449 22.41 3.269 11.078 16.095 38.02 16.095 38.02z"/><path fill="#1D1D1D" stroke="#1D1D1D" stroke-linecap="round" stroke-linejoin="round" stroke-miterlimit="10" d="M402.643 413.442c-8.047-47.337-37.975-88.379-81.735-108.522-19.114-8.813-30.431 19.64-11.318 28.452 33.701 15.36 55.078 47.085 60.862 84.099 10.814-1.259 21.629-3.022 32.191-4.029z"/><path fill="#fff" d="M182.585 366.608c-7.041.756-21.377 6.799-23.64 12.842-2.515 6.043 4.024 1.259 7.545 0 0 0-10.312 4.028-8.048 8.309 2.012 4.28 7.293-1.763 10.311-2.014 0 0-8.802 4.28-6.287 7.553 2.515 3.274 8.802-4.784 12.575-2.014 3.772 2.77-4.527 7.805-1.761 9.316 2.767 1.511 6.036-3.021 19.617-3.525"/><path stroke="#1D1D1D" stroke-linecap="round" stroke-linejoin="round" stroke-miterlimit="10" d="M182.585 366.608c-7.041.756-21.377 6.799-23.64 12.842-2.515 6.043 4.024 1.259 7.545 0 0 0-10.312 4.028-8.048 8.309 2.012 4.28 7.293-1.763 10.311-2.014 0 0-8.802 4.28-6.287 7.553 2.515 3.274 8.802-4.784 12.575-2.014 3.772 2.77-4.527 7.805-1.761 9.316 2.767 1.511 6.036-3.021 19.617-3.525"/><path fill="#fff" d="M370.452 417.47c-1.258 10.324 2.012 17.122 8.048 19.136z"/><path stroke="#1D1D1D" stroke-linecap="round" stroke-linejoin="round" stroke-miterlimit="10" d="M370.452 417.47c-1.258 10.324 2.012 17.122 8.048 19.136"/><path fill="#fff" d="M374.224 425.276c2.264 5.287 8.551 19.136 13.832 19.388 5.282.252-1.509-11.835-1.509-11.835s5.282 11.835 10.815 11.331c2.766-.252-3.018-13.093-3.018-13.093s4.527 11.834 8.047 11.331c3.773-.504-1.508-11.331-.502-15.108.754-2.518 2.263-7.302 1.005-13.597"/><path stroke="#1D1D1D" stroke-linecap="round" stroke-linejoin="round" stroke-miterlimit="10" d="M374.224 425.276c2.264 5.287 8.551 19.136 13.832 19.388 5.282.252-1.509-11.835-1.509-11.835s5.282 11.835 10.815 11.331c2.766-.252-3.018-13.093-3.018-13.093s4.527 11.834 8.047 11.331c3.773-.504-1.508-11.331-.502-15.108.754-2.518 2.263-7.302 1.005-13.597"/><path fill="#1D1D1D" d="M259.291 279.992c-9.054 14.1-6.539 3.525-27.162 9.82-20.622 6.294-14.838 12.589-21.377 17.625s-13.077 12.841 14.838 10.072c27.916-2.77 35.713-7.554 39.988-11.583 4.276-4.028 15.09-8.561 17.856-19.388 2.767-10.827-24.143-6.546-24.143-6.546z"/><path fill="#fff" stroke="#1D1D1D" stroke-linecap="round" stroke-linejoin="round" stroke-miterlimit="10" d="M296.764 303.66l-6.791-8.561-6.79-8.561c1.509-2.77 1.761-6.546.503-11.834-3.018-11.079-17.353-9.065-21.377-2.014-4.024 7.05-4.024 12.337-4.024 12.337l3.018 1.008s1.761 8.057 9.557 7.302l8.048 10.071 4.275 5.54c-.251 0-.251 0-.503.251l1.509 18.633 12.826-23.165.755-1.511-1.006.504z"/><path fill="#1D1D1D" d="M274.38 266.144c-4.527.251-8.802 2.014-12.071 6.294 3.269 3.274 10.311 5.036 13.329 5.036 2.766 0 3.018 3.777 1.006 5.036-1.761 1.007 3.521 4.28 4.778 4.28h1.509c1.761-2.769 2.012-6.798.755-12.086a66.207 66.207 0 0 1-.755-3.273c-2.766-2.014-5.533-3.777-8.551-5.287z"/><path fill="#fff" stroke="#1D1D1D" stroke-linecap="round" stroke-linejoin="round" stroke-miterlimit="10" d="M326.188 591.709c-39.987-38.775-38.73-104.996-38.73-104.996s65.892-3.022 105.879 36.006c39.988 39.027 38.73 104.997 38.73 104.997s-65.891 3.021-105.879-36.007z"/><path stroke="#1D1D1D" stroke-linecap="round" stroke-linejoin="round" stroke-miterlimit="10" d="M406.415 464.303h25.652"/><path fill="#fff" stroke="#1D1D1D" stroke-linecap="round" stroke-linejoin="round" stroke-miterlimit="10" d="M329.207 560.005h77.209v-95.933h-77.209v95.933z"/><path stroke="#1D1D1D" stroke-linecap="round" stroke-linejoin="round" stroke-miterlimit="10" d="M367.685 536.567c14.723 0 26.658-11.949 26.658-26.69 0-14.74-11.935-26.689-26.658-26.689s-26.659 11.949-26.659 26.689c0 14.741 11.936 26.69 26.659 26.69z"/><path stroke="#1D1D1D" stroke-linecap="round" stroke-linejoin="round" stroke-miterlimit="10" d="M386.547 490.489l-18.862 19.388h26.658M345.05 496.029l22.635 13.848M381.014 541.352h11.317M381.014 546.387h11.317M432.067 646.096V318.012"/><path fill="#fff" stroke="#1D1D1D" stroke-linecap="round" stroke-linejoin="round" stroke-miterlimit="10" d="M509.528 546.135c-29.928 27.446-77.461 23.669-77.461 23.669s.503-47.841 30.431-75.286 77.46-23.668 77.46-23.668-.754 48.092-30.43 75.285zM469.54 318.013c-11.065 20.898-37.975 28.2-37.975 28.2s-9.054-26.438 2.012-47.337c11.065-20.898 37.975-28.2 37.975-28.2s9.054 26.438-2.012 47.337z"/><path stroke="#1D1D1D" stroke-linecap="round" stroke-linejoin="round" stroke-miterlimit="10" d="M432.067 569.804l69.161-63.451M381.014 573.832l51.053 53.883M448.666 305.675l-17.102 40.538M423.768 464.303v8.813"/></g><defs><linearGradient id="paint0_linear" x1="454" x2="40" y1="252" y2="751" gradientUnits="userSpaceOnUse"><stop stop-color="#E00815"/><stop offset=".036" stop-color="#E8101D"/><stop offset=".148" stop-color="#FF2936"/><stop offset=".524" stop-color="#FFD8DA"/><stop offset=".708" stop-color="#F1E8E9"/><stop offset=".87" stop-color="#EBEBEB"/></linearGradient><clipPath id="clip0"><path fill="#fff" d="M0 0h547v738H0z"/></clipPath></defs></svg>