<svg xmlns="http://www.w3.org/2000/svg" fill="none" viewBox="0 0 466 611"><path fill="url(#paint0_linear)" d="M457.055 594.336H165.257V73.135C165.257 32.71 197.953 0 238.361 0H384.26c40.407 0 73.103 32.71 73.103 73.135v521.201h-.308z"/><path fill="#000" d="M405.852 149.355h-34.547v32.711h34.547v-32.711z"/><path fill="#fff" stroke="#000" stroke-linecap="round" stroke-linejoin="round" stroke-miterlimit="10" d="M398.448 145.035h-34.547v32.71h34.547v-32.71z"/><path fill="#000" d="M422.817 126.52H199.496V71.592c0-20.675 16.965-37.648 37.631-37.648h148.367c20.666 0 37.631 16.973 37.631 37.648v54.928h-.308z"/><path stroke="#000" stroke-linecap="round" stroke-linejoin="round" stroke-miterlimit="10" d="M378.09 311.363h28.995"/><path fill="#000" d="M410.478 321.238h-33.93v11.109h33.93v-11.109z"/><path stroke="#fff" stroke-linecap="round" stroke-linejoin="round" stroke-miterlimit="10" d="M366.678 45.362l-66.01 70.666M395.672 45.362l-66.009 70.666"/><path stroke="#000" stroke-linecap="round" stroke-linejoin="round" stroke-miterlimit="10" d="M317.325 532.619l17.89-8.023M333.056 472.136l13.572 8.332M230.341 401.47l-9.562 12.652M432.687 393.138l-7.095 11.109"/><path fill="#fff" stroke="#1D1D1D" stroke-linecap="round" stroke-linejoin="round" stroke-miterlimit="10" d="M226.022 213.233l-18.199 91.341c-3.084 15.43-17.89 25.304-33.004 22.219L23.676 296.551c-15.114-3.086-25.293-17.898-22.209-33.327l18.2-91.341c3.084-15.43 17.89-25.305 33.312-22.219l151.143 30.242c15.114 3.394 24.985 18.206 21.9 33.327z"/><path fill="#1D1D1D" stroke="#1D1D1D" d="M14.21 200.133l4.533-22.619 205.586 41.239-4.534 22.62-205.585-41.24z"/><path fill="#fff" stroke="#1D1D1D" stroke-linecap="round" stroke-linejoin="round" stroke-miterlimit="10" d="M82.409 238.732l-45.366-9.101-5.458 27.231 45.366 9.101 5.458-27.231z"/><path stroke="#1D1D1D" stroke-linecap="round" stroke-linejoin="round" stroke-miterlimit="10" d="M36.94 229.588l40.099 36.413"/><path fill="#fff" d="M117.446 320.003c5.861 4.629 13.264.618 15.731-.925z"/><path stroke="#1D1D1D" stroke-linecap="round" stroke-linejoin="round" stroke-miterlimit="10" d="M117.446 320.003c5.861 4.629 13.264.618 15.731-.925"/><path fill="#fff" d="M115.596 307.969c6.786 0 10.179 2.468 5.86 7.714-4.935 6.172-12.955 10.801-18.815 5.246"/><path stroke="#1D1D1D" stroke-linecap="round" stroke-linejoin="round" stroke-miterlimit="10" d="M115.596 307.969c6.786 0 10.179 2.468 5.86 7.714-4.935 6.172-12.955 10.801-18.815 5.246"/><path fill="#fff" d="M106.033 305.5c8.02-2.777 13.572.308 5.553 8.332-12.03 12.034-20.05 3.394-20.05 3.394"/><path stroke="#1D1D1D" stroke-linecap="round" stroke-linejoin="round" stroke-miterlimit="10" d="M106.033 305.5c8.02-2.777 13.572.308 5.553 8.332-12.03 12.034-20.05 3.394-20.05 3.394"/><path fill="#fff" stroke="#1D1D1D" stroke-linecap="round" stroke-linejoin="round" stroke-miterlimit="10" d="M69.327 306.735c1.234 5.246 21.284 17.898 33.005 3.085 5.243-6.48 1.542-9.257-2.159-8.023-4.936 1.543-11.413 8.332-11.413 8.332l-19.433-3.394z"/><path fill="#1D1D1D" stroke="#1D1D1D" d="M442.866 587.239l-.079.493h0l.002.001.011.002.046.008.187.033c.164.032.408.08.719.149a35.12 35.12 0 0 1 2.583.684c2.143.653 4.995 1.728 7.843 3.418 5.592 3.32 11.129 8.981 11.317 18.473H382.92l.027-1.252a1921.717 1921.717 0 0 0 .309-20.732c.115-12.458.116-27.361-.348-37.097-.108-2.279.685-3.74 2.102-4.646 1.464-.936 3.663-1.327 6.441-1.248 5.542.157 13.066 2.168 20.675 4.809 7.596 2.635 15.225 5.878 20.958 8.464a323.96 323.96 0 0 1 6.93 3.225c.836.402 1.494.724 1.942.944l.41.203v24.069h.5zM62.768 500.664l.003-.002c2.025-1.049 3.676-.934 5.08-.022 1.45.943 2.71 2.785 3.781 5.349 2.138 5.118 3.406 12.815 4.138 20.851.73 8.022.923 16.328.933 22.632.004 3.151-.037 5.8-.079 7.661a232.334 232.334 0 0 1-.073 2.624l-21.93 10.055.004.007a.418.418 0 0 0-.06.021.886.886 0 0 0-.207.261c-.03.086-.028.16-.028.166v.779l.167-.076.06.281c.122.589.277 1.463.408 2.547.262 2.171.423 5.176.024 8.443-.783 6.416-3.713 13.792-12.25 17.907l-33.82-75.29 1.14-.482a1766.765 1766.765 0 0 0 18.945-8.155c11.374-4.976 24.959-11.076 33.764-15.557z"/><path fill="#fff" stroke="#1D1D1D" stroke-linecap="round" stroke-linejoin="round" stroke-miterlimit="10" d="M50.82 500.526c86.368-34.253 113.512-155.836 111.661-240.388-.617-25.921 17.89-20.984 37.014-14.504 6.169-2.16 13.264-2.777 20.358-1.543 143.123 24.07 224.864 183.609 225.481 318.461h-64.776c-1.542-102.759-55.83-223.108-160.396-252.115-5.552 102.759-45.651 210.456-145.59 249.955-7.404-20.058-14.806-40.425-23.752-59.866z"/><path stroke="#1D1D1D" stroke-linecap="round" stroke-linejoin="round" stroke-miterlimit="10" d="M442.866 579.524h-13.572M66.86 564.403L59.765 549.9M220.161 310.437l-23.134-4.629"/><path fill="#fff" stroke="#1D1D1D" stroke-linecap="round" stroke-linejoin="round" stroke-miterlimit="10" d="M274.141 123.743s-1.542 11.418-12.646 11.109l-18.816 37.03a453.87 453.87 0 0 1-17.89-8.023l19.124-37.339c-2.468-3.703-3.393-8.949-1.851-16.046 3.085-15.738 22.826-14.504 29.303-4.938 6.478 9.567 6.786 16.355 6.786 16.355l-4.01 1.852z"/><path fill="#fff" stroke="#1D1D1D" stroke-linecap="round" stroke-linejoin="round" stroke-miterlimit="10" d="M273.216 100.908c-.309 7.097-14.806 12.652-20.05 12.652-7.711 0-7.094 7.406-.925 7.097 3.084 0-4.319 6.172-5.861 6.48-.617 0-1.542.309-2.159 0-4.627-6.48-4.318-15.12-2.159-19.132 4.318-8.023 14.806-19.44 21.283-11.726 5.861-4.32 9.871-1.852 9.871 4.629z"/><path fill="#fff" stroke="#1D1D1D" d="M374.667 165.235l4.662-1.036-2.041 12.54-.132.816.784-.261 5.312-1.772 4.851 3.426 2.753 26.924 1.492 18.216-41.968-4.531-3.212-8.47 11.612-26.29 15.887-19.562z"/><path fill="#fff" d="M364.827 173.733c-8.328.926-18.507 8.024-15.114 27.465z"/><path stroke="#1D1D1D" stroke-linecap="round" stroke-linejoin="round" stroke-miterlimit="10" d="M364.827 173.733c-8.328.926-18.507 8.024-15.114 27.465"/><path fill="#1D1D1D" stroke="#1D1D1D" d="M265.707 259.648l-109.646 2.75c7.927-26.672 14.151-46.662 19.746-61.554 5.645-15.025 10.632-24.809 16.045-31.025 5.386-6.185 11.204-8.849 18.586-9.599 7.428-.755 16.422.429 28.165 1.975 13.113 1.764 21.84 5.993 27.458 11.973 5.617 5.979 8.184 13.773 8.854 22.786.67 9.019-.564 19.219-2.514 29.965-1.097 6.047-2.413 12.23-3.74 18.464-1.009 4.738-2.024 9.506-2.954 14.265z"/><path fill="#1D1D1D" stroke="#1D1D1D" d="M208.671 181.845l-70.618-15.463c4.823-3.406 12.435-5.645 21.552-7.009 9.66-1.446 20.928-1.899 32.173-1.764 21.428.257 42.713 2.647 52.52 4.336l-35.627 19.9z"/><path fill="#1D1D1D" stroke="#1D1D1D" stroke-linecap="round" stroke-linejoin="round" stroke-miterlimit="10" d="M393.205 213.85h-46.268c0 .308 0 .617-.309 1.234-1.542 15.121 3.085 40.116-12.338 50.608-12.647 8.332-17.274-4.012-20.358-14.504-12.03-41.659-29.612-87.021-80.198-89.489-32.079-1.543-32.079 48.448 0 49.99 21.283 1.235 27.144 35.179 31.462 50.609 7.095 24.378 20.975 50.916 47.811 58.939 25.601 7.715 48.735-5.246 64.158-26.229 16.657-22.836 17.582-51.534 16.348-78.69-.308-.926-.308-1.543-.308-2.468z"/><path stroke="#1D1D1D" stroke-linecap="round" stroke-linejoin="round" stroke-miterlimit="10" d="M346.628 215.084c1.234-22.218 28.686-57.397 33.005-51.534 3.393 4.938-10.488 24.379-10.488 24.379 5.861-10.184 12.955-18.824 19.741-8.332"/><path fill="#fff" d="M381.792 188.546c5.552-11.418 12.029-8.641 15.114-4.629 3.084 4.012 4.01 14.195-.926 15.738 0 0-5.243-1.852-2.776 16.664"/><path stroke="#1D1D1D" stroke-linecap="round" stroke-linejoin="round" stroke-miterlimit="10" d="M381.792 188.546c5.552-11.418 12.029-8.641 15.114-4.629 3.084 4.012 4.01 14.195-.926 15.738 0 0-5.243-1.852-2.776 16.664M393.205 201.815l1.542-5.863M253.783 217.244l7.403 33.327"/><defs><linearGradient id="paint0_linear" x1="311.199" x2="311.199" y1="-30.779" y2="788.665" gradientUnits="userSpaceOnUse"><stop stop-color="#E00815"/><stop offset=".417" stop-color="#F7F7F7"/><stop offset=".75" stop-color="#EBEBEB"/></linearGradient></defs></svg>