<svg xmlns="http://www.w3.org/2000/svg" fill="none" viewBox="0 0 36 37"><path fill="#CCC" d="M13.8 17H31c.8 0 1.5-.6 1.5-1.4v-8H9.7l4.1 9.4z"/><path fill="#1D1D1D" d="M8.1 4.1L6.3 0H0v3.5h4l6.5 15L8 21.9c-.9 1.2-1 2.8-.3 4.1.7 1.3 2.1 2.1 3.6 2.1h22.6v-3.5H11.3c-.2 0-.3-.1-.4-.2 0-.1-.1-.3 0-.4l2.6-3.4H31c2.8 0 5-2.2 5-4.9V4.1H8.1zm24.3 11.5c0 .8-.7 1.4-1.5 1.4H13.7l-4-9.4h22.7v8zM11.6 37c2 0 3.6-1.6 3.6-3.5S13.6 30 11.6 30 8 31.6 8 33.5 9.6 37 11.6 37zM30.6 37c2 0 3.6-1.6 3.6-3.5S32.6 30 30.6 30 27 31.6 27 33.5s1.6 3.5 3.6 3.5z"/><path fill="#1D1D1D" d="M26.6 9.3h-7.4v3.5h7.4V9.3z"/></svg>