<svg xmlns="http://www.w3.org/2000/svg" fill="none" viewBox="0 0 32 37"><path fill="#AC0610" d="M12.1 25.8H20V15.4c0-1.3-1.1-2.4-2.4-2.4h-3c-1.3 0-2.4 1.1-2.4 2.4v10.4h-.1z"/><path fill="#1D1D1D" d="M25.1 7.1c2 0 3.6-1.6 3.6-3.5S27.1 0 25.1 0s-3.6 1.6-3.6 3.5 1.6 3.6 3.6 3.6zM15.9 7.1c2 0 3.6-1.6 3.6-3.5S17.9 0 15.9 0s-3.6 1.6-3.6 3.5 1.6 3.6 3.6 3.6zM6.7 7.1c2 0 3.6-1.6 3.6-3.5S8.7 0 6.7 0 3.1 1.6 3.1 3.5s1.6 3.6 3.6 3.6zM17.5 9.4h-3c-3.3 0-6 2.7-6 5.9v14h1.8V37h3.6v-7.6H18V37h3.6v-7.6h2v-14c0-3.3-2.7-6-6.1-6zm-5.4 6c0-1.3 1.1-2.4 2.4-2.4h3c1.3 0 2.4 1.1 2.4 2.4v10.4H12V15.4h.1zM26 9.4h-1.5v.2c.8.9 1.3 2 1.5 3.3 1.3 0 2.4 1.1 2.4 2.4V22h-2.6v15h3.6V25.5H32V15.4c0-3.3-2.7-6-6-6zM0 15.4v10.1h2.6V37h3.6V22H3.6v-6.6C3.6 14.1 4.7 13 6 13c.1-1.3.7-2.4 1.5-3.3v-.3H6c-3.3 0-6 2.7-6 6z"/></svg>