<svg xmlns="http://www.w3.org/2000/svg" fill="none" viewBox="0 0 37 37"><path fill="#CCC" d="M33.3 3.7H3.7v29.6h29.6V3.7z"/><path fill="#1D1D1D" d="M33.3 0H22.2v3.7h11.1v11.1H37V0h-3.7zM37 33.3V22.2h-3.7v11.1H22.2V37H37v-3.7zM3.7 0h11.1v3.7H3.7v11.1H0V0h3.7zM0 33.3V22.2h3.7v11.1h11.1V37H0v-3.7zM19.6 9l2.1 5.9c.1.2.2.3.4.3h5.8c.4 0 .5.5.2.7l-4.9 3.6c-.1.1-.2.3-.1.4l1.9 6.5c.1.4-.3.7-.6.4l-5.1-3.6c-.1-.1-.3-.1-.5 0l-5.1 3.6c-.3.2-.7-.1-.6-.4l1.9-6.5c0-.2 0-.3-.1-.4L10 15.9c-.3-.2-.2-.7.2-.7H16c.2 0 .3-.1.4-.3l2-5.9c.2-.5 1-.5 1.2 0z"/></svg>