<svg xmlns="http://www.w3.org/2000/svg" id="Layer_1" viewBox="0 0 100 80"><style>.st3{fill:#a3a7b1}.st4{fill:#a4a8b4}.st5{fill:#dadada}.st6{fill:#b6b9c5}.st7{fill:#848993}.st8{fill:#e00814}.st10{fill:#c12d2d}.st11{fill:#f4e0d6}.st16{fill:#ecdfc9}.st17{fill:#3c3c3b}.st18{fill:#ead4c6}.st20{fill:#f4ead9}.st21{fill:#282828}.st24{fill:#6577b7}.st25{fill:#f6f5f5}.st27{fill:#e43533}</style><path fill="#c6c6c6" d="M36.1 58.5c6.5-2.1 37.8-2.2 32.3 2.8s-3.7 9.3 4.2 8 34.7.1 23.6 4.9c-29.6 12.9-40.2-.1-50.6 2.2s-27.5 4.2-23.8-1.9c2.6-4.2-23.7-2.4-21.8-5.6 2-3.3 29.6-8.3 36.1-10.4z" opacity=".4"/><path fill="#c6c6c6" d="M26.8 62.6c4.4 1.5 25 1.1 21.6 1.7-3.3.6-16 .3-6.8 7.1-1.2.2-1.1.3-2.3.4-1.4.2-6.4-3-10.7-3.2s-14.9 1.3-12.8.3c2.9-1.3 7.9-2.6 9.9-3.5 3.6-1.5 1.1-2.8 1.1-2.8z" opacity=".5"/><path fill="#c6c6c6" d="M81 73.7c5.3-1.4 24.5 1.2 17.5 2.7s-20.4 2.6-19 .6c1.4-1.9-3.9-1.9 1.5-3.3z" opacity=".39"/><path d="M32.3 65.9l-4.9-3.3 4.9.8z" class="st3"/><path d="M35.3 63.6l14.3.6L36 65.6z" class="st4"/><path d="M33.1 64l6.9 7.8 2.3-.4-7-7.8z" class="st5"/><path d="M40 71.8l-6.9-5.6V64zM33.1 64l-.8-.6-16.6 5.7.6.6z" class="st6"/><path d="M33.1 64v2.2l-16.8 3.5z" class="st4"/><path d="M49.6 64.2l-.7-.5-14.4-.7.8.6z" class="st6"/><path d="M27.4 62.6l1.2-.2 5.9.6-2.2.4z" class="st7"/><path d="M33.1 64l2.2-.4-.8-.6-2.2.4z" class="st6"/><path d="M35.3 63.6v-9.3l-2.2.4V64z" class="st3"/><path d="M33.1 54.7V64l-.8-.6v-9z" class="st7"/><path d="M21.9 9.3s-1-2.5-3-2.9-5.7.6-7 11.6-.9 18.2 1.9 24.2c6.8 14.6 24.7 18.5 36.6 5.8 0 0 1.7-1.4 3.3-3.7 0 0 7.4-9.1.2-13.7-3.2-2-6.1.8-9.8-1.1s-2.8-5.7.8-8.4c2.8-2.1 5.8-3.2 6.8-5.4s-.1-6.7-4.5-8-5-1.3-10.9 1.1c-3.1 1.3-5.8 1.7-7.7 1.8.1 0-5.1.3-6.7-1.3z" class="st8"/><path fill="#c12d2d" d="M13.8 42.2c6.8 14.6 24.7 18.5 36.6 5.8 0 0 1.7-1.4 3.3-3.7 0 0-23.8 19-42.4-11.4.1 3.6 2.5 9.3 2.5 9.3z" opacity=".7"/><path d="M28.7 10.6s-5.3.2-6.8-1.3c0 0 2.5 5.4-.7 9.8l8.8-1.7-1.3-6.8z" class="st10"/><path d="M28.7 10.6c2-.1 4.6-.5 7.7-1.8 5.9-2.4 6.5-2.5 10.9-1.1s5.5 5.8 4.5 8-4 3.3-6.8 5.4c-3.6 2.7-4.5 6.5-.8 8.4s6.7-.9 9.8 1.1c7.1 4.6-.2 13.7-.2 13.7s-25.1-4.8-25.1-33.7z" class="st10"/><path d="M34.2 3.5s-2.2-.2-3.3.9c-3.6-.2-4.3 0-3.9.2.4.2 3.8.3 3.7.6-.1.4-5.1-.1-4.8.4.4.5 4.5.2 4.4.8-.1.4-5-.4-5 .2-.1.5 4.7.4 4.7.7 0 .4-5.9-.1-3.6.5s5.7.1 7.3-.3c1.3-.3.5-4 .5-4z" class="st11"/><path d="M35 45.4s-5.6-1.3-8.7-6.2c-2.1-3.3-2-6.1-.8-6.2 2.9-.1 9.5 12.4 9.5 12.4z" class="st10"/><path fill="#a42728" d="M27.2 38.9c-1.6-3.1-1.4-5.7-.3-5.6 2.7.1 2.8 10.2.3 5.6z"/><path d="M87 76.9s-2.7.1-3.8-1.6c-.4-.7-.8-2.8-2-3.8-1.9-1.6-3.3-2.5-3.3-2.5s.9-1.1 1.6-2.1c.8-1.1 3.7.8 6.3-.1 2.6-.9 4-3.5 4.7-4.4.6-.8-.6 4-.6 4l-1.2 7-1.7 3.5z" class="st10"/><path d="M88.6 77.2c-.1.3-.4.4-.7.3l-.5-.2c-.3-.1-.5-.4-.4-.7l3.5-14.2c.1-.4.5-.6.8-.4l.4.2c.3.1.5.4.4.8l-3.5 14.2z" class="st6"/><path fill="#ededed" d="M42 26.4S51.5 15.9 52.7 9c-5.4-3.4-20.6-3.8-20.6-3.8V7s10.1 4.5 13.5 4.6c-2.2 1-4.9 4.9-4.9 4.9s-1.5 7.6 1.3 9.9z"/><path d="M45.6 11.7C42.2 11.5 32.1 7 32.1 7V5.2s3.2.1 7.3.5c-.1 0-.3 2.8 6.2 6z" class="st5"/><path fill="#a42728" d="M44.5 31.4s4.1-.1 6.3.7c2.3.7 2.6 2.5 2.5 4.1-.1 1-1.8 3.3-2.3 3.6s-6.2-4.1-6.5-5.8c-.2-1.8 0-2.6 0-2.6z" opacity=".51"/><path fill="#dadada" d="M40.3 22.2s.6 3.3 1.6 4.2c0 0 9.5-10.5 10.7-17.4.1 0-8.9 7.5-12.3 13.2z" opacity=".38"/><path d="M78.1 68.7l-.8-.5 1-1.3.8.5z" class="st16"/><path d="M40.8 16.5s-9.4-1.7-17.1 0C26 24.4 24.8 30 24.8 30s3.8 10.1 7.2 12.8c1.2-1.6 3.1-5.1 15.4-7.6 0 0-4.1-5-5.4-8.9s-1.2-9.8-1.2-9.8z" class="st17"/><path d="M28.3 9c0-.2-.3-.4-.5-.4s-.5.2-.5.5c0 .4.1 1.8.5 1.8s.7-.4.6-.8L28.3 9zm7-.2c.1-.3.4-.5.7-.3.1.1.1.2.2.3.1.6-.2 2-.5 2h-.2c-.2 0-.4-.3-.4-.5l.2-1.5z" class="st18"/><path fill="#d7beae" d="M35.8 9s0-.1 0 0c-.1-.1-.2-.1-.2-.1v-.1h.2c.1.1.1.1 0 .2z"/><path d="M33.6 13.2s-.4 3.8-.6 4.5c-.1.3-.4.4-.7.4-.4 0-.8-.1-1.1-.4l-1.5-1.1c-.2-.2-.3-.4-.3-.7 0-.7 0-2.1-.1-2.9" class="st20"/><path d="M35.7 8.2l1-1.4c.7-.9.5-2.2-.3-3l-.5-.5-.2 4.9z" class="st21"/><path fill="#222323" d="M28.1 8.3l-.8-1.7c-.5-1.2.1-3.3 1.2-4l.4.3-.8 5.4z"/><path fill="#fbf5e8" d="M35.7 3.5c-.9-1.5-6.3-2.2-7.4 0s.6 10.5 1.6 11.3c.5.4 3.8.9 4.6-.5.4-1 2.1-9.3 1.2-10.8z"/><path d="M32.7 13c.2-.2-.2.4-.2.5-.1.3-.4.5-.7.1-.2-.3-.4-.7-.4-.6 0 0 1.2.2 1.3 0z" class="st11"/><circle cx="33.7" cy="7.8" r=".1" class="st17"/><circle cx="30.5" cy="7.8" r=".1" class="st17"/><path d="M36.1 4s-.6-.5-1.4-.5c-.9 0-3.4.5-4.6 0S27.3 2.3 28.5.6s3.1.5 3.9.8c.8.3 2.9.4 3.2.7s.9 1 .5 1.9z" class="st21"/><path d="M34.4 3.9s.1 1.8.1 2c.1.5-.2.4-.2.6 0 .2.2.1.4.4s.3 1-.1 1.3-1.1.4-1.4.2c-.3-.2-.6.6-.2 1 .4.4 0 1.2.2 1.3.2.2.8.7.8 1.1 0 .4.4 1.4.4 1.4s.5-.8.7-2.3.8-4.9.7-5.9.3-.9-.1-1.3-.7-.2-1-.2-.4 0-.3.4z" class="st11"/><path d="M31.6 15.1s.7.8.8.8.5 0 .3.3c-.1.3-.2 1.5-.2 1.5s.3 0 .4-.3c.1-.3.5-3.1.5-3.1s-1 .7-1.8.8z" class="st16"/><path d="M31 12.2c.2-.1.4-.4.5-.6.1-.2.4-.3.6-.2.1 0 .1.1.2.1.2.2.1.5-.1.6-.3.2-.7.4-1.3.2l.1-.1z" class="st21"/><path d="M33.3 12.2c-.2-.1-.2-.3-.3-.5v-.1c-.1-.2-.4-.4-.6-.3-.1 0-.1.1-.2.1-.2.2-.2.5 0 .7.3.2.6.4 1.3.3l-.2-.2z" class="st21"/><path d="M32.5 9.8s.4.3.4.5 0 .3-.1.3-.4-.1-.3-.2v-.6z" class="st18"/><path d="M35.2 11.3s-.7 2.2-1.2 2.6-1.6.5-1.7.3c-.1-.3-.6 0-.6 0-.3.3-1 .9-1.6 0l-1.2-1.8s.2 1.8.9 2.5c.4.4 1.4.4 2.3.4.7 0 1.7 0 2.2-.8.5-.8.9-3.2.9-3.2z" class="st21"/><path d="M29.8 6.4c-.1-.1-.1-.2-.1-.2.6-.5 1.4-.1 1.4-.1.1 0 .1.1.1.1 0 .1-.1.1-.1.1s-.7-.3-1.3.1c.1 0 .1 0 0 0zm4.5-.1c-.1 0-.1 0 0 0-.1 0-.7-.4-1.3 0h-.1v-.1c.7-.4 1.4 0 1.4 0 .1 0 .1 0 0 .1z" class="st17"/><path d="M32.3 8.9c.1.3.3.8.4 1.2.1.3-.1.5-.4.5h-.2c-.2 0-.3-.1-.2-.3l.2-1.3c.1-.1.2-.1.2-.1z" class="st11"/><path d="M32.1 13.2c-.3 0-.6-.1-.7-.4v-.1h.1c.1.1.3.2.5.2.3 0 .5-.1.6-.2 0-.1.1-.1.1 0 .1 0 .1.1 0 .1 0 .3-.3.4-.6.4zm0 .5h-.2c-.1 0-.1-.1 0-.1 0-.1.1-.1.1 0h.2c.1 0 .1 0 .1.1s0 .1-.1.1c.1-.2 0-.1-.1-.1z" class="st17"/><path d="M44.2 39.2s14 12.6 16.2 14.4c2.2 1.9 19.5 14.5 19.5 14.5l2.3-1.8s-12.3-12.5-15-15.1-19.9-15.9-19.9-15.9l-6 1.6 2.9 2.3z" class="st24"/><path d="M31.9 42.8s8.1 7.3 20.8 14.4C59.2 60.8 76.8 69 76.8 69l1.6-2.1-37-30c-.1 0-7.6 2.1-9.5 5.9z" class="st24"/><path d="M23.6 16.5s-8.7 7.8-7.7 16.1l9.9.6s.8-2.1 2.2-1.9c-.3-.2-1.5-1-3.2-1.7 0 .1 1.3-7.5-1.2-13.1z" class="st25"/><path d="M24.9 29.7c-1.2-.5-2.6-.9-4.1-1 0 0 2.9-.8 4.3-4.4.2 2.4-.2 5.4-.2 5.4zm-9 3l9.9.6.2-.4c.2-.3 0-.7-.4-.8-1.7-.3-5.7-.7-9.7.6z" class="st5"/><path fill="#b6b9c5" d="M27.1 30.8s-1.8.6-2 2.4h.7c.6-1.8 1.8-1.9 2.2-1.9-.4-.2-.9-.5-.9-.5z" opacity=".42"/><path d="M25.8 33.3l1 1.6s-.1 2.2 1.1 3.3c0 3.6.3 4.3.4 3.9s.1-3.8.4-3.7c.4.1.2 5.1.6 4.8.4-.4-.1-4.5.5-4.4.4.1-.1 5 .4 5s.1-4.8.5-4.8.2 5.9.7 3.6-.2-5.7-.7-7.3c-.4-1.4-2.3-3.3-2.7-3.7-.1-.1-.1-.1-.2-.1-.3-.1-1.3-.1-2 1.8z" class="st20"/><path d="M91.9 64.1s-1.3 2-4.4 2.9c-2.5.7-5-.5-5.8-.8-.1-.1-.3 0-.4.1l-2.1 2.1c-.1.1-.1.4 0 .5.3.3.9 1.1.8 1.9 0 1.3-.2 2.2.5 3.1.7.9 1.6 1.4 1.6 1.4l5.4-3.2 3.5-4.6 1.5-3.3h-.6z" class="st8"/><path d="M80.3 70.5c-.4.6-.4 2.4.3 3.4.7.9 1.6 1.4 1.6 1.4l5.4-3.2 4.2-7.5s-1 .4-2.7 3.2c-.5.8-.8 1.5-1.4 1.9-.9.6-3.1 1.8-4 1.2-1.4-.9-3.1-1-3.4-.4z" class="st10"/><path d="M94.9 63.7c-.9-.6-2.1-.5-2.9.3-.8.7-1.2 1.6-1.9 2.7-1 1.7-1.6 3.4-3 4.1s-3.8 1.8-4.6 2.4c-.4.4-.7.8-.8 1.3-.2.4-.1.9.3 1.2l.4.4c.2.2.4.2.6.1l7-4.4c.1 0 .1-.1.2-.2l3.2-5.6.1-.1 1.4-1.4c.3-.3.3-.7 0-.8z" class="st5"/><path d="M82.7 75.7c-.2-1.4 1.8-2.4 4-3.3 2.2-.8 3.6-2.2 4.3-3.9.7-1.7 2.9-5.4 4.5-4.6 1.6.8 1.1 4.7-1.1 6.6-2.1 1.9-5.1 2.7-6.2 3.5-1 .9-5.1 5.5-5.5 1.7z" class="st6"/><path d="M84 66.5c.2.1.3-.2.2-.3-.2-.3-.4-.7-.4-1.2 0-.6.1-.9.1-1.1 0-.1-.1-.2-.2-.2-.3.1-.8.3-1.1.6-.5.6-.7 1.4 0 1.7.4.2 1 .4 1.4.5z" class="st27"/><path d="M32.6 18.6l1.7 2.5v.1l1.1 3.8v.1c.1.4-.2.5-.4.3l-1.9-2.5-1.5-1.4c-.1-.1-.1-.2-.1-.3l.4-2.3c0-.1.1-.3.3-.3.2-.1.3-.1.4 0z" class="st10"/><path d="M32.5 17.3s-.4.3-1.1.1c-.8-.2-.6 1.3.7 1.3.9.1 1.4-1 .4-1.4z" class="st27"/><path d="M32.5 17.3l.9 1.5 1-2.2-1-1.2c0-.1-.1.8-.9 1.9zm-3.4-1.5l-.7 1.2 2.5 2 .6-1.7c0 .1-1.4-.1-2.4-1.5z" class="st25"/><path fill="#212225" d="M35.9 27.1c.1.1.2 0 .2-.1-.6-1.7-1.6-5.5 0-9.6.1-.2 0-.4-.1-.6l-2-1.3c-.1-.1-.3 0-.3.1-.9 2.4.1 6.1 1.2 8.8 0 .1-.1.1-.1 0-1.5-3-3.8-7.1-5.7-8.8-.2-.2-.4-.1-.6.1l-1.3 2.1c-.1.2 0 .5.2.6 2.3.9 7 6.7 8.5 8.7z"/><path d="M31.4 39.8c-.1-.4-.4-1.2-.5-1.6-.1-.1-.2-.2-.3-.2-.1 0-.3 0-.4.1.1-.1.2-.2.3-.2.1 0 .1-.1.1-.2 0-.6-.8-3-1.8-3.9-.7-.7-1.5-1.1-1.9-1.3-.3-.1-.3-.5-.1-.6.5-.4 1-.4 1.2-.4.1 0 .2.1.2.1.4.4 2.2 2.4 2.7 3.7.5 1.5 1.2 5 .7 7.3-.1-.1-.1-2.2-.2-2.8z" class="st16"/><path d="M29.3 38.3s.1-.2.2-.1.2 0 .2-.1-.5-.3-.4.2zm-1-.2s.1-.2.2-.1.2 0 .2-.1-.5-.3-.4.2z" class="st16"/><circle cx="25.5" cy="32.9" class="st7" transform="rotate(-72.295 25.547 32.891)" r=".1"/><path fill="#c12d2d" d="M17 7.1s-4 2.2-4 12.3c0 7.5 4.9-2.7 4.9-5.2s-1.4-4.9-.8-6.1c.5-1.3.1-1.2-.1-1z" opacity=".33"/><path fill="#576db1" d="M46.3 38.4c-1 .4-1.2 1.6-.5 2.3 3.8 3.4 12.7 11.4 14.5 12.9 2 1.7 17.2 12.9 19.2 14.3.1.1.3 0 .3-.1v-.3c-1.1-1.1-10.7-9.3-14.7-13-.6-.5-.5-1.7-.8-2-.4-.4-1.7-.3-2.7-1.2-4.1-3.8-11.8-11-14.1-12.8-.2-.2-.7-.3-1.2-.1z" opacity=".68"/><path fill="#576db1" d="M59.6 54.5c-.9.1-.2 1-1.5 1.3-1.2.3 0 1.4 1.1.8 1.1-.6 1.3-2.2.4-2.1z" opacity=".4"/></svg>