<svg xmlns="http://www.w3.org/2000/svg" id="Layer_1" viewBox="0 0 100 84"><style>.st0{opacity:.22;fill:#c6c6c6}.st1{fill:#575856}.st2{fill:#c12d2d}.st3{fill:#e00814}.st4{fill:#212225}.st5{fill:#3c3c3b}.st8{fill:#e43533}.st9{fill:#9e2728}.st12{fill:#fbf5e8}.st14{fill:#576db1}.st20{fill:#dadada}.st22{fill:#1d1d1b}.st23{fill:#f4ead9}.st24{opacity:.67;fill:#ead4c6}</style><path d="M37.3 72.9c-4-1-25.1-.6-21.6 1.7 5.5 3.6-16.1 2.7-11.9 5.3 10.8 6.5 21.3.9 27.7 2s16.9 2 14.6-.9c-1.6-2.1 14.6-1.2 13.4-2.7-1.2-1.8-18.2-4.4-22.2-5.4z" class="st0"/><path d="M45 56.7l2.6 20.4h-.1c-.3 0-.5-.2-.5-.5l-2.7-12.9c-.2-1.3-1.4-2.1-2.7-1.8l-.7.1c-1.7.5-3 1.9-3.2 3.7l-1 8.9c0 .3-.1.5-.3.7l-.6.8-.3 4.5c0 .3-.2.5-.5.5h-.2l-.2-.1c-.2-.1-.3-.3-.3-.5l.2-4.5-.2-1c0-.2-.1-.4-.1-.6L34 62.7l-5.3-2-5.1 14.9c-.1.2-.3.3-.5.3l4.2-20 8.4 3 9.3-2.2z" class="st1"/><path d="M44.4 43.8c1.4.6 2.2 2 2 3.5L45 56.7l-1-.3.4-12.6z" class="st2"/><path d="M44.8 56.7l-9.4 2.1-8.4-3 9.6-1.9z" class="st3"/><path d="M34.9 81.3l-.2-.1c-.2-.1-.3-.3-.3-.5l.2-4.5-.2-1c0-.2-.1-.4-.1-.6l-.2-9.2c0-1.6-1.1-3.1-2.6-3.6l-.4-.1c-1.3-.5-2.8.2-3.3 1.5l-4.3 12.5c-.1.2-.3.3-.5.3l4.2-20 8.4 3-.7 22.3z" class="st4"/><path d="M35.5 61.4L33 58.1l2.6.9z" class="st5"/><path fill="#3c3c3b" d="M42.8 56.2l2.5 3-.3-2.6z" opacity=".72"/><path d="M18.9 64.8c-.3-8.5-4.3-11.9-5.8-14.8-2.4-5-2.2-15 6.8-16.3 17.7-2.6 6.7-11.2 6.7-18.5C26.7 9.1 31 1 40.5 1 54 1 62.6 16.3 78.2 13.5c7.7-1.4 18-1.1 19.9 2.2 8.1 13.7-11.4 39.6-28.9 38.3-11.5-.8-12.4-21.9-34.2 8-1.8 2.5-15.8 13.5-16.1 2.8z" class="st0"/><path fill="#6577b7" d="M24.2 47.3c3.8-3.9 3.5-7.3 4.2-9.3 1.2-3.4 5.9-7.8 10.6-4.2 9.1 6.9 8.2-2 11.5-5.2 2.8-2.7 8.4-4.4 12.7 0 6 6.2 2.9 17 11.2 22.9 4.1 2.9 8.5 7.8 7.9 10.1-2.7 9.9-23.3 12.5-30.6 3.9-4.8-5.7 4.5-15.5-19-12.1-2 .4-13.3-1.2-8.5-6.1z" opacity=".1"/><path d="M2.2 78c4.7-1.2 21.9 1.1 15.6 2.4S-.3 82.8.9 81s-3.5-1.7 1.3-3z" class="st0"/><path d="M45.9 56.8L35 59.2l-9.6-3.5 11-2.2z" class="st2"/><path d="M45.9 56.3L35 58.7l-9.6-3.5 11-2.2z" class="st8"/><path d="M35 59.2l-9.6-3.5v-.5m9.6 3.5v.5l10.9-2.4v-.5z" class="st2"/><path d="M25.4 55.2l9.6 3.5v.5l-9.6-3.5z" class="st9"/><path d="M25.2 12.9l-.2-.3c-.1-.1-.3-.2-.4-.1-.1.1-.1.3 0 .4l.2.3c.2.3.6 0 .4-.3zm19 26.2l1.4 3.7c.1.2.3.2.4.1l.5-.4c.1-.1.1-.2.1-.3l-1.9-3.3c-.2-.3-.6-.1-.5.2zM41.5 6.5l.9-2.7c0-.1 0-.3-.2-.3l-.4-.1c-.2 0-.3 0-.3.2L41 6.4c-.1.3.4.4.5.1zm8.1 28.8l3.9 3.6c.1.1.4.1.4-.1l.3-.8c0-.1 0-.2-.1-.3l-4.3-2.8c-.2-.2-.5.1-.2.4zm-28.1-7.8c-.2 0-.3.2-.2.3 0 .1.2.2.3.2.3-.1.2-.5-.1-.5zM23 38.7l-.3.7c-.1.2.1.4.3.3l.2-.1c.1 0 .1-.1.2-.2l.1-.6c.1-.3-.3-.4-.5-.1zm5.2-32.5c-.2-.6-.4-1-.5-1.2l-.1-.1-.4-.2c-.2-.2-.4 0-.3.3l.9 1.5c.1.2.5 0 .4-.3zM15.9 17l1.8.5c.3.1.5-.4.2-.5l-2.4-1c-.3-.1-.5.2-.3.4l.7.6zm33.2-3c.4-.2.5-.8.2-1.2-.3-.3-.7-.4-1-.1-.8.6-.1 1.7.8 1.3zM35 44.2l-.3-3.1c0-.3-.5-.3-.5 0L34 45c0 .3.3.4.5.1l.5-.8v-.1zm20.1-16.6l1.2.2c.1 0 .3-.1.3-.2v-.2c0-.2-.1-.3-.3-.3h-1.2c-.3-.1-.4.4 0 .5zm-11-6l.5-.1c.2 0 .3-.2.2-.3v-.1c0-.1-.2-.2-.3-.2l-.5.2c-.3.1-.2.6.1.5z" fill="#c6c6c6" opacity=".4"/><path d="M37.5 23.6s-2.9 1.7-3.6 1c-.6-.6-2-3.5-2.6-6.1-.6-2.5 1.3-4.3 3.6-4.4 1.9-.1 3.1 1.4 3.5 2.6.4 1.2.4 4.1.5 5 .1 1-1.4 1.9-1.4 1.9z" class="st12"/><path d="M11.8 70.7s-1.3 1.1-3 1.6c-1.7.4-3.3.2-4.3.5-1.2.4-1.4 3.2 2.6 3.5 3.5.3 7.4-2 7.4-2s-2.1-2.4-2.7-3.6z" class="st3"/><path fill="#a3a7b1" d="M3.8 73.5l-.6 1.7s.2.9 1.8 1.6 4 .4 4 .4 3.3-1.2 3.9-2.1c-1.2.3-8.3 2.5-9.1-1.6z"/><path d="M6.6 72.6s1.2.2 1.4 1c.2.5-.3 1.4 0 1.8.3.4.6.4 1.7.4 0 0-2.3.4-3.5 0-.8-.3-2-.8-2.3-2-.1-.3 0-.6.2-.7.7-.7 2.5-.5 2.5-.5z" class="st2"/><path d="M35.2 24.6s.7 2.7.9 2.9c.2.2 3.7.2 4.3-1 0 0-1.4-3-1.5-4.8 0 .1 0 1.7-3.7 2.9z" class="st12"/><path d="M13.5 72.8l-.5 1s3.7 2.1 5.2 2L22.5 65l-7.9 5.8-1.1 2z" class="st14"/><path fill="#476399" d="M22.5 65l-8.3 9.3-1.2-.5 1.6-2.9z" opacity=".6"/><path d="M18.6 57.4c.4-1.6.4-4.2 1.2-5.1.8-.9 3.5-1.5 5.7-2.4 2.3-.9 6.4-3.2 6.4-3.2 1 .1 4.3 2.1 5.7 3.3s3.1 6.7 3.1 6.7S31 58.5 29 59c-2.5.6-5.5 5.5-8.2 8s-9.2 7.3-9.2 7.3-2.5-2.7-2.5-5.3c0 0 5-3.9 7.6-6.4 0-.1 1.5-3.5 1.9-5.2z" class="st14"/><path fill="#6577b7" d="M27.6 51.2c2.6-1.2 6.7-3.5 6.7-3.5s2.8 1.8 3.4 2.3c1.4 1.2 3.1 6.7 3.1 6.7S31 58.5 29 59c-2.5.6-5.5 5.5-8.2 8s-9.2 7.3-9.2 7.3-2.5-2.7-2.5-5.3c0 0 5.8-4.7 7.6-6.4 3.4-3.2 3.7-6 5.5-7.8 1.6-1.8 3.9-2.9 5.4-3.6z"/><path fill="#576db1" d="M33.8 53.8c2.6-1.2 3.3-4.3 3.9-3.8 1.4 1.2 3.1 6.7 3.1 6.7S31 58.5 29 59c-2.5.6-5.5 5.5-8.2 8s-9.2 7.3-9.2 7.3l-1.2-1.6s5.8-3.9 8.6-6.7c3.3-3.4 5.5-7.4 7.3-9.3 1.6-1.7 6-2.2 7.5-2.9z" opacity=".68"/><path d="M18.2 75.8v1.4S9.7 80.1 6 78.3c0 0-.5-1.4 1.8-1.4 2.8 0 5.7-2.9 5.7-2.9l4.7 1.8z" class="st3"/><path fill="#282828" d="M37.8 18.6s-2.4-.6-2.4-3.4c0-.4-.6-.5-.7 0-.1.6-1.4 2-3.1 2.5-.4.1-.8-.3-.7-.7.4-1.1 1.5-2 2.3-2.3 2.5-1.1 4.1.2 4.8 1.5.6 1.2.6 2.5.6 2.5l-.8-.1z"/><path d="M18.2 77.3v1.5s-7 3-12.3 1.1l.1-1.5c1.7.9 9.4-.1 12.2-1.1z" class="st20"/><path fill="#ededed" d="M40.4 26.6l2.9 1.5-3.1 3.7c-1.8 2.1-2.8 4.9-2.7 7.7l.2 10.5s-4-3.1-5.7-3.3l.3-9.3c0-1.4.4-2.7 1-3.9l3-5.9 4.1-1z"/><path d="M40.4 26.6l5.1 2.7-.6 1.5c-1.3 3.2-1.6 6.7-1.1 10.1l.8 4.4c.1.7.2 1.5.1 2.2l-.7 8.6-2.8.6c-.5.1-1.1-.1-1.4-.5-.6-.9-1.7-2.6-1.7-4.3C38 50 36.4 48 36.4 48v-6.3c0-2.9.6-5.8 1.7-8.5l1.6-3.8c.2-.6.4-1.2.6-1.9l.1-.9z" class="st5"/><path d="M36.2 27.5l-2.3 1.6-1.9 5.3c-.7 2-1 4.2-.7 6.4l.7 5.9.8-.2-.1-6.5c0-1.5.2-3.1.7-4.5l2.8-8zm4.1-.1c-.1.6-.3 1.3-.6 1.9l-1.6 3.8c-1.1 2.7-1.7 5.6-1.7 8.5V48l1.7-8.7c.4-2.1 1.2-4.2 2.3-6.1l1-1.9-.7-1 1.1-.2.8-2.4-2.1-1.7-.2 1.4z" class="st4"/><path d="M38.6 43.1l-5.5 1.6-7.2 3.2 6-1.8z" class="st9"/><path d="M10.1 76.4c.4-.2.3.8.9.9.6.1 2.4-.4 2.9 0s.2.9.2.9-6.4 1.1-8.1.2C5.6 77.1 7 77 7.6 77c.6 0 1.6-.1 2.5-.6zm7.2-.9s-1 .8-.6 2.2l1.4-.4v-1.4l-.8-.4zm22-32.2l-7.5 3.1-5.9 1.5 5.6-1.9 7.1-3c.3 0 .6.1.7.3z" class="st2"/><path d="M34.5 20.1c0-.1-.1-.2 0 0-.1-.1-.1-.1 0 0-.2 0-.1 0 0 0-.1 0-.1 0 0 0 0-.1-.1-.2 0 0-.1-.1-.1-.1 0 0-.1-.1-.1 0 0 0-.1 0 0 0 0 0-.1-.1-.1-.1 0 0-.1-.1-.1-.1 0 0-.2-.1-.1 0 0 0zm-1.9.7c-.1 0-.1 0 0 0-.1 0-.1.1 0 0 0 .1 0 .1 0 0 .1 0 0-.1 0 0-.1 0-.1 0 0 0-.1 0 0 0 0 0 0 .1 0 0 0 0 .1 0 0-.1 0 0-.1 0-.1 0 0 0-.1 0 0 .1 0 0z" class="st22"/><path d="M31.8 41.5s-.6-3.1-.5-4.4c.1-1.3-1.8 5.1-1.8 5.1l.1.4c.1.5.6.8 1.1.7l.4-.1c.4-.1.7-.5.7-1v-.7z" class="st5"/><path d="M30.9 41.6l-.6.2c-.3.1-.5.4-.4.7.1.3.4.5.7.4l.6-.2c.2-.1.4-.3.4-.6s-.4-.6-.7-.5z" class="st4"/><path d="M31.6 42.1l.7.6.2-.1c.1 0 .3 0 .3.1.1.1 0 .3-.1.4-.4.2-.9.2-1.3-.1-.2-.2-.5-.2-.8-.1h-.1c-.2.1-.3.2-.4.4l-.5 1.4c-.2.5-.6.8-1.1.9l-.4.1c-.5.1-.9-.4-.7-.9l.7-1.5c.3-.6.8-1.1 1.4-1.2l1.1-.3c.4 0 .8 0 1 .3z" class="st23"/><path d="M25.9 47.9l-7.7-6.3 5.8-2.2 8 7z" class="st8"/><path d="M31.4 46.5s-1.2.1-1.3.2c-.7.1-2.6-.5-2.6-.3s1.9.6 1.9.7c0 .1-2.5-.6-2.6-.5-.1.1-.1.2 0 .3.6.3 2.4 1.1 3.6 1.2 1.6.1 4-.4 4-.4l-.6-1.7-3 .3c-.3 0-.5.2-.5.5" class="st23"/><path d="M34.1 46.7s-2.1.7-3.1.9c-1.1.2-2.4 0-2.5-.1-.1 0 .9.4 2 .5 1.3.1 4-.4 4-.4l-.4-.9z" class="st24"/><path d="M35.1 23.1s0-.1 0 0c-.1-.1 0-.1 0 0 .3-.2.4-.6.4-.6h.1v.1c0-.1-.1.3-.5.5z" class="st22"/><path d="M35.4 25.2l1.5-.3c.4-.1.9 0 1.2.2.4.2.9.2 1.2 0l.4-.3c-.6-1.2-.8-3-.8-3l-.1.2c-.5 1.1-1.4 1.9-2.5 2.3l-1 .4.1.5z" class="st24"/><path d="M45.5 29.3s1.8 5.1 2.2 7.7c.3 2 .1 5.7 0 7.3 0 .5-.4.8-.8.9 0 0-6.7 3.1-12.5 2.7l-.8-2.6c3.1-.5 7-3.5 10.4-3.7 0 0-1.6-6.3 1.5-12.3z" class="st1"/><path fill="#f4e0d6" d="M35.8 24.4v-.1c-.1-.4 0-.8.1-1.1l.4-.9c.2-.4.1-.9-.3-1.1-.3-.2-.4-.5-.3-.9l.2-.7c.1-.3 0-.7-.2-.9l-.2-.2c-.3-.3-.4-.7-.4-1.1 0 0 .1-1.2.3-1.8.6 3.2 3.2 3 3.2 3l.2 3.1c-.4 1.4-1.6 2.4-3 2.7z" opacity=".7"/><path d="M38.1 23c.2-1.1.1-2.5 0-3.1.3-.1.6-.4.6-.4l.2 2.2c-.2.8-.8 1.3-.8 1.3z" class="st24"/><path d="M38.3 18c-.1 0-.1-.1-.2 0H38l-3 1.2s.1 0 .1.1v.1s0 .1.1.2c0 .1.1.1.1.2v.1l2.8-1.6h.3c0-.1 0-.2-.1-.3z" class="st8"/><path d="M35.2 19.2s-.1 0 0 0H35h.2c-.1.1-.1.1 0 .1 0 0 0 .1.1.2 0 .1.1.1.1.2v.1h.1v-.1l-.3-.5z" class="st9"/><path d="M34.9 19.2l-1.3.6c-.2.1-.3.3-.2.5l.1.1c.1.2.3.2.4.2l1.2-.5c.1 0 .2-.1.2-.3v-.2l-.2-.3c0-.1-.1-.1-.2-.1zm-3.1 1.4l.4-.2c.2-.1.5 0 .6.2.1.2 0 .4-.2.5l-.5.2c-.1.1-.3 0-.3-.1l-.1-.2c-.1-.1-.1-.3.1-.4z" class="st22"/><path fill="#c12d2d" d="M8 77s2.6 1.6 4.5.6 3.1-2.7 3.1-2.7l-2.1-.8S11.4 76.5 8 77z" opacity=".44"/><path d="M33.2 36.3s0 .3.3.7-.3 1-.5 1.4c-.2.5-.2.6-.2.6s0-1.9.4-2.7z" class="st20"/><path d="M47.1 45.2c.4-.2.6-.5.7-.9.1-1.6.3-5.3 0-7.3-.2-1.5-1.5-5.6-1.5-5.6s-.4 3.9-.1 5.9c.3 2 1.1 6.5 1.1 6.5s.1.9-.2 1.4z" class="st5" opacity=".57"/><path d="M38.1 19.9s.9-.2.8-.9c-.2-.7-1.1-.4-1.1-.4l.3 1.3zm-4.3 1.4s.4.2.5.4c0 .2.1.3 0 .3-.1.1-.4 0-.4-.1-.1-.1-.1-.6-.1-.6z" fill="#ead4c6"/><path fill="#f4e0d6" d="M33.3 20.6c.2.3.5.7.7 1 .1.2 0 .5-.2.6h-.1c-.1 0-.3-.1-.3-.2l-.1-1.4c-.1 0 0-.1 0 0z"/><path d="M33.2 18.7c-.1 0-.1 0 0 0-.1-.1-.1-.1 0 0 .3-.4.6-.1.6-.1v.1h-.1s-.2-.3-.5 0zm-1.4 1c.1-.5.5-.3.6-.3v.1h-.1c0-.1-.3-.1-.5.2.1 0 0 0 0 0zm5.7 3.8c.1-.1-.1-.2-.1-.1-.5.5-1.4.8-2.4.8-.6 0-.8-.1-1 .2v.1c-.1.2.1.4.3.4.8 0 2.4-.5 3.2-1.4z" class="st22"/></svg>