<svg width="37" height="37" fill="none" xmlns="http://www.w3.org/2000/svg"><path d="M22.2 18.5h-7.4c-1.11 0-1.85-.74-1.85-1.85v-3.7c0-3.145 2.405-5.55 5.55-5.55s5.55 2.405 5.55 5.55v3.7c0 1.11-.74 1.85-1.85 1.85zm-5.55-3.7h3.7v-1.85c0-1.11-.74-1.85-1.85-1.85s-1.85.74-1.85 1.85v1.85z" fill="#CCC"/><path d="M26.75 14.389h-16.5a1 1 0 00-1 1v12.389a1 1 0 001 1h16.5a1 1 0 001-1v-12.39a1 1 0 00-1-1z" fill="#CCC"/><path d="M33.3 0H22.2v3.7h11.1v11.1H37V0h-3.7zM37 33.3V22.2h-3.7v11.1H22.2V37H37v-3.7zM3.7 0h11.1v3.7H3.7v11.1H0V0h3.7zM0 33.3V22.2h3.7v11.1h11.1V37H0v-3.7z" fill="#1D1D1D"/></svg>