<svg width="41" height="41" fill="none" xmlns="http://www.w3.org/2000/svg"><path d="M20.5 0C15.17 0 10.045 2.05 6.15 5.945V2.05C6.15.82 5.33 0 4.1 0S2.05.82 2.05 2.05v9.225c0 1.23.82 2.05 2.05 2.05h9.225c1.23 0 2.05-.82 2.05-2.05s-.82-2.05-2.05-2.05H8.61c6.15-6.56 16.605-6.765 23.165-.615A16.28 16.28 0 0136.9 20.5c0 1.23.82 2.05 2.05 2.05S41 21.73 41 20.5C41 9.225 31.775 0 20.5 0zm16.4 27.675h-9.225c-1.23 0-2.05.82-2.05 2.05s.82 2.05 2.05 2.05h4.715c-6.15 6.56-16.605 6.765-23.165.615A16.28 16.28 0 014.1 20.5c0-1.23-.82-2.05-2.05-2.05S0 19.27 0 20.5C0 31.775 9.225 41 20.5 41c5.33 0 10.66-2.05 14.35-5.945v3.895c0 1.23.82 2.05 2.05 2.05s2.05-.82 2.05-2.05v-9.225c0-1.23-.82-2.05-2.05-2.05z" fill="#CCC"/><path d="M22 12h-4v10h4V12zm0 12h-4v4h4v-4z" fill="#1D1D1D"/></svg>