<svg width="886" height="713" fill="none" xmlns="http://www.w3.org/2000/svg"><path d="M559.921 176.843a1 1 0 001.343.218l49.317-32.812a1 1 0 011.522.581l20.856 80.383a.998.998 0 00.655.698l113.802 37.427c.958.316.899 1.691-.083 1.923l-133.357 31.493a1 1 0 00-.77.981l.895 105.594c.008.875-1.033 1.337-1.677.745L548.46 345.23a1 1 0 00-1.411.057l-44.61 48.256a1 1 0 01-1.701-.422l-25.709-96.733a1 1 0 00-.448-.599l-48.316-29.261a1 1 0 01-.101-1.641l53.42-42.1c.244-.193.385-.488.381-.8l-2.173-147.643c-.014-.959 1.199-1.386 1.789-.63l80.34 103.129z" fill="url(#paint0_linear)"/><path d="M601.524 148.084h-306.74a2 2 0 00-2 2v545.317a2 2 0 002 2h306.74a2 2 0 002-2V150.084a2 2 0 00-2-2z" stroke="#828282" stroke-miterlimit="10" stroke-linecap="round" stroke-linejoin="round"/><path d="M643.151 680.216H468.695c-8.155 0-14.766 6.611-14.766 14.766 0 8.156 6.611 14.767 14.766 14.767h174.456c8.156 0 14.767-6.611 14.767-14.767 0-8.155-6.611-14.766-14.767-14.766z" fill="#1D1D1D"/><path d="M583.852 260.009H312.457a2 2 0 00-2 2v122.652a2 2 0 002 2h271.395a2 2 0 002-2V262.009a2 2 0 00-2-2z" stroke="#828282" stroke-miterlimit="10" stroke-linecap="round" stroke-linejoin="round"/><path d="M539.671 260.01H268.276a2 2 0 00-2 2v122.652a2 2 0 002 2h271.395a2 2 0 002-2V262.01a2 2 0 00-2-2z" fill="#E00815" stroke="#E00815" stroke-miterlimit="10" stroke-linecap="round" stroke-linejoin="round"/><path d="M484.236 287.99H292.785a7.364 7.364 0 000 14.727h191.451a7.364 7.364 0 000-14.727zm26.508 25.036H292.785a7.364 7.364 0 100 14.727h217.959a7.364 7.364 0 000-14.727z" stroke="#F7F7F7" stroke-miterlimit="10" stroke-linecap="round" stroke-linejoin="round"/><path d="M583.852 408.752H312.457a2 2 0 00-2 2v115.289a2 2 0 002 2h271.395a2 2 0 002-2V410.752a2 2 0 00-2-2z" fill="#EBEBEB" stroke="#828282" stroke-miterlimit="10" stroke-linecap="round" stroke-linejoin="round"/><path d="M528.417 436.733H336.966a7.364 7.364 0 100 14.727h191.451a7.364 7.364 0 000-14.727zm-50.072 50.072H336.966a7.363 7.363 0 100 14.727h141.379a7.363 7.363 0 007.363-7.364 7.362 7.362 0 00-7.363-7.363zm76.58-25.036H336.966a7.364 7.364 0 000 14.727h217.959a7.364 7.364 0 100-14.727z" stroke="#828282" stroke-miterlimit="10" stroke-linecap="round" stroke-linejoin="round"/><path d="M583.852 550.132H312.457a2 2 0 00-2 2v91.725a2 2 0 002 2h271.395a2 2 0 002-2v-91.725a2 2 0 00-2-2z" fill="#EBEBEB" stroke="#BDBDBD" stroke-miterlimit="10" stroke-linecap="round" stroke-linejoin="round"/><path d="M478.345 578.113H336.966a7.364 7.364 0 000 14.727h141.379a7.362 7.362 0 007.363-7.363 7.363 7.363 0 00-7.363-7.364zm50.072 25.036H336.966a7.364 7.364 0 100 14.727h191.451a7.364 7.364 0 000-14.727z" stroke="#BDBDBD" stroke-miterlimit="10" stroke-linecap="round" stroke-linejoin="round"/><path d="M565.234 181.957H329.602c-11.387 0-20.618 9.23-20.618 20.617s9.231 20.618 20.618 20.618h235.632c11.387 0 20.618-9.231 20.618-20.618 0-11.387-9.231-20.617-20.618-20.617z" fill="#F7F7F7" stroke="#828282" stroke-miterlimit="10" stroke-linecap="round" stroke-linejoin="round"/><path d="M569.652 211.279l-4.238-4.238a9.127 9.127 0 001.947-5.612c0-5.04-4.123-9.164-9.163-9.164s-9.164 4.124-9.164 9.164 4.124 9.163 9.164 9.163a9.132 9.132 0 005.613-1.947l4.238 4.238 1.603-1.604zm-18.327-9.85c0-3.78 3.093-6.873 6.873-6.873 3.78 0 6.872 3.093 6.872 6.873 0 3.78-3.092 6.872-6.872 6.872s-6.873-3.092-6.873-6.872z" fill="#1D1D1D"/><path fill-rule="evenodd" clip-rule="evenodd" d="M266.276 334.944c-49.058.153-92.419 31.174-110.552 79.989a525.54 525.54 0 015.65 2.234c8.676 3.471 16.154 6.463 25.91 7.525 12.293-32.036 45.763-54.839 78.992-57.216v-32.532z" fill="#fff"/><path d="M266.276 334.944h.5a.5.5 0 00-.502-.5l.002.5zm-110.552 79.989l-.469-.174a.5.5 0 00.288.64l.181-.466zm5.65 2.234l-.186.464.186-.464zm25.91 7.525l-.054.497a.5.5 0 00.521-.318l-.467-.179zm78.992-57.216l.036.498a.5.5 0 00.464-.498h-.5zm-.002-33.032c-49.279.153-92.817 31.317-111.019 80.315l.937.348c18.066-48.631 61.248-79.511 110.085-79.663l-.003-1zm-110.731 80.955a520.3 520.3 0 015.645 2.232l.372-.928c-1.82-.728-3.695-1.478-5.656-2.237l-.361.933zm5.645 2.232c8.672 3.47 16.209 6.488 26.042 7.558l.108-.995c-9.68-1.053-17.098-4.018-25.778-7.491l-.372.928zm26.563 7.24c12.218-31.841 45.509-54.532 78.561-56.897l-.072-.997c-33.407 2.39-67.054 25.304-79.422 57.535l.933.359zm79.025-57.395v-32.532h-1v32.532h1z" fill="#1D1D1D"/><path d="M166.5 374.358c1.539 5.136 3.849 8.218 6.671 10.015l-5.132 35.44 14.113 1.027 5.388-37.237c6.671-3.339 3.849-13.097 4.362-11.557l2.053-2.568s-2.823-4.365-10.007-8.474c-7.441-3.853-20.784 2.054-17.448 13.354z" fill="#fff" stroke="#1D1D1D" stroke-miterlimit="10" stroke-linecap="round" stroke-linejoin="round"/><path d="M170.093 362.031c3.849-2.312 8.724-2.825 13.856-1.028-1.027 4.623-6.415 10.016-8.981 11.557-2.566 1.541-.513 4.879 1.796 4.879 2.053 0-.77 5.393-1.796 6.164-.513.256-1.026.513-1.283.77-3.079-1.541-5.388-4.623-7.185-10.016-.256-1.027-.769-2.054-1.026-3.338 1.283-3.082 2.823-6.163 4.619-8.988z" fill="#1D1D1D"/><path d="M181.383 369.735l-3.079-3.082c-2.31-2.311-6.159 1.284-3.593 3.596l3.079 3.081c2.566 2.312 6.159-1.284 3.593-3.595z" fill="#1D1D1D"/><path d="M352.785 705.642l-53.114-.257s.769-25.424 0-37.751c-.77-12.327 36.692-6.164 36.692-6.164l1.54 29.02c.256 0 14.882 2.311 14.882 15.152z" fill="#fff" stroke="#E00815" stroke-miterlimit="10" stroke-linecap="round" stroke-linejoin="round"/><path d="M338.672 684.583l-11.803.256m11.803 3.853l-11.803.256" stroke="#E00815" stroke-miterlimit="10" stroke-linecap="round" stroke-linejoin="round"/><path d="M14.856 712.318L1 660.956s24.633-5.907 36.436-9.759c11.803-3.852 15.652 33.899 15.652 33.899l-27.712 9.245s1.54 14.638-10.52 17.977z" fill="#fff" stroke="#E00815" stroke-miterlimit="10" stroke-linecap="round" stroke-linejoin="round"/><path d="M31.278 693.314l-3.336-11.3m-.513 12.328l-3.336-11.3" stroke="#E00815" stroke-miterlimit="10" stroke-linecap="round" stroke-linejoin="round"/><path d="M298.901 516.629c-34.383-41.09-90.063-48.537-140.355-46.74-9.494.257-14.112-8.474-17.191-1.541-1.283 2.055-4.362 18.491-4.876 21.572C122.11 550.271 102.61 630.139 34.1 648.115c6.671 13.098 12.573 26.708 18.475 40.063C128.012 665.065 157.52 584.426 175.48 513.29c34.127.257 70.049 6.164 92.373 34.156 26.941 33.899 27.198 80.381 27.198 121.728h43.62c0-53.674-3.848-109.401-39.771-152.545z" fill="#E00815"/><path d="M178.304 510.209l14.882-9.245" stroke="#fff" stroke-miterlimit="10" stroke-linecap="round" stroke-linejoin="round"/><path d="M165.731 408.514l.256-7.704 24.376 1.284-2.309 8.988" fill="#fff"/><path d="M165.731 408.514l.256-7.704 24.376 1.284-2.309 8.988" stroke="#1D1D1D" stroke-miterlimit="10" stroke-linecap="round" stroke-linejoin="round"/><path d="M171.889 409.285c-29.508-1.027-33.1 10.529-37.719 67.798l69.279-.771s2.823-16.692 3.849-33.899c1.283-18.49 4.619-31.587-35.409-33.128z" fill="#fff" stroke="#1D1D1D" stroke-miterlimit="10" stroke-linecap="round" stroke-linejoin="round"/><path d="M137.249 464.499h67.997m-67.74-16.436h26.172m-23.606-16.436h19.757m-11.29-16.436h52.088m-54.14 61.891v-59.836m16.421 59.835v-67.54m16.679 67.284v-67.027m16.421 66.771v-63.432" stroke="#1D1D1D" stroke-miterlimit="10" stroke-linecap="round" stroke-linejoin="round"/><path d="M301.621 363.101l-16.2 4.418 4.418 4.418 21.354 5.891 6.627-.737 2.946-15.463-1.473-3.682-17.672 5.155z" fill="#fff"/><path d="M317.119 377.439c4.105-4.108 7.184-9.758 3.079-14.124z" fill="#fff"/><path d="M317.119 377.439c4.105-4.108 7.184-9.758 3.079-14.124" stroke="#1D1D1D" stroke-miterlimit="10" stroke-linecap="round" stroke-linejoin="round"/><path d="M320.198 358.692c2.309 4.623-5.132 11.557-5.132 11.557z" fill="#fff"/><path d="M320.198 358.692c2.309 4.623-5.132 11.557-5.132 11.557" stroke="#1D1D1D" stroke-miterlimit="10" stroke-linecap="round" stroke-linejoin="round"/><path d="M285.556 367.937c4.362-9.759 9.494-20.802 12.06-19.004 2.566 1.798 0 13.868 3.592 14.382 3.593.513 18.218-14.125 19.245-8.989 1.026 5.136-9.751 9.759-9.751 9.759" fill="#fff"/><path d="M310.702 364.085s10.777-4.623 9.751-9.759c-1.027-5.136-15.652 9.502-19.245 8.989-3.592-.514-1.026-12.584-3.592-14.382s-7.698 9.245-12.06 19.004c3.636 2.315 15.032 7.387 31.526 9.154 2.983-2.803 7.834-9.482 3.371-13.776.349-1.054.753-3.455-.425-4.633" stroke="#1D1D1D" stroke-miterlimit="10" stroke-linecap="round" stroke-linejoin="round"/><path d="M285.558 367.938c-15.908 41.603-61.068 62.661-103.662 50.334-22.323-6.42-31.817 28.249-9.494 34.67 62.351 17.976 122.65-15.152 144.973-75.503-10.52-1.797-23.349-4.108-31.817-9.501zm257.664 313.051h53.114s0-25.424.77-37.751c.77-12.327-38.488 6.42-38.488 6.42l-.257 15.408s-14.882 3.082-15.139 15.923z" fill="#fff" stroke="#1D1D1D" stroke-miterlimit="10" stroke-linecap="round" stroke-linejoin="round"/><path d="M557.848 659.159l11.803.514m-11.803 3.595l11.546.514" stroke="#1D1D1D" stroke-miterlimit="10" stroke-linecap="round" stroke-linejoin="round"/><path d="M839.583 707.954L885 680.219s-13.599-21.316-19.501-32.102c-5.901-10.786-34.64 13.611-34.64 13.611l13.856 25.681c-.256 0-11.546 9.759-5.132 20.545z" fill="#fff" stroke="#1D1D1D" stroke-miterlimit="10" stroke-linecap="round" stroke-linejoin="round"/><path d="M840.867 682.786l10.263-5.907m-8.211 9.246l10.264-5.907" stroke="#1D1D1D" stroke-miterlimit="10" stroke-linecap="round" stroke-linejoin="round"/><path d="M869.091 650.428c-38.488-64.973-72.358-132.514-100.84-202.623-4.362-11.043-14.625-18.747-26.941-15.152-8.468 2.312-16.422 11.557-16.422 20.802-78.517 32.615-170.376 103.751-169.093 196.459h43.62c0-72.934 78.004-130.459 140.098-155.626.257 0 .514-.257 1.027-.514 25.915 60.094 55.167 118.389 88.523 174.631 13.343-6.164 26.686-12.07 40.028-17.977z" fill="#fff" stroke="#1D1D1D" stroke-miterlimit="10" stroke-linecap="round" stroke-linejoin="round"/><path d="M734.125 410.054c-8.467 25.681-41.824 18.233-60.042 10.529-8.467-3.595-18.218 3.852-20.527 11.557-2.823 9.502 3.336 16.949 11.546 20.544 37.719 15.923 86.728 10.016 101.097-33.898 6.928-20.288-25.402-29.02-32.074-8.732zm2.053-59.324c-4.362-1.027-9.237 0-13.599 3.338 2.565 4.109 8.98 7.705 12.059 8.218 2.823.771 2.053 4.623-.256 5.137-2.053.77 2.309 4.879 3.592 5.393.513.256 1.026.256 1.539.256 2.31-2.311 3.849-6.163 3.593-11.813v-3.338c-1.796-2.568-4.362-4.88-6.928-7.191z" fill="#1D1D1D"/><path d="M743.362 361.517c0 5.393-1.026 8.988-3.335 11.556l4.618 10.273 5.132 11.299-13.086 5.393-4.875-11.043-5.389-12.07c-7.954-1.284-7.697-9.758-7.697-9.758l-2.823-1.798s1.283-5.136 6.928-11.043c5.645-6.163 20.271-4.623 20.527 7.191z" stroke="#1D1D1D" stroke-miterlimit="10" stroke-linecap="round" stroke-linejoin="round"/><path d="M740.283 353.812c4.619-6.42 3.593-20.545 14.883-11.3 11.29 9.245 10.263 24.397 31.304 19.518 21.04-4.88 25.402 7.447 38.488 7.19 13.086-.256 21.81 4.109 4.619 8.989-17.192 4.879-27.712-2.055-47.213 4.879-19.501 6.934-37.205-5.393-30.534-16.436 6.671-11.042 3.079-17.976-1.54-14.895-4.618 3.082-8.211 6.677-8.211 6.677l-1.796-4.622z" fill="#1D1D1D"/><path d="M605.83 195.874c-36.692-48.537-96.734-51.619-140.355-17.977-43.62 33.642-51.574 96.817-17.961 140.475 30.278 39.035 83.905 49.564 125.986 26.965 4.875-2.568 9.75-5.65 14.369-9.245 4.618-3.595 8.724-7.448 12.573-11.556 32.33-34.927 35.409-89.113 5.388-128.662zm-26.685 128.918c-30.791 23.884-72.872 23.37-102.636 1.284-6.158-4.622-12.06-10.015-16.935-16.435-28.738-37.238-22.067-90.911 15.139-119.931 37.205-28.762 88.267-26.194 119.827 15.152 28.225 37.494 21.81 90.911-15.395 119.93z" fill="#fff" stroke="#1D1D1D" stroke-miterlimit="10" stroke-linecap="round" stroke-linejoin="round"/><path d="M463.501 229.522c4.99-10.613 12.854-19.508 22.431-25.934m-28.22 55.469c-.196-3.282-.034-6.624.338-9.818" stroke="#1D1D1D" stroke-miterlimit="10" stroke-linecap="round" stroke-linejoin="round"/><path d="M708.209 463.984l-26.941 20.801L573.5 345.595c4.875-2.569 9.75-5.65 14.369-9.246 4.618-3.595 8.724-7.447 12.573-11.556l107.767 139.191z" fill="#fff" stroke="#1D1D1D" stroke-miterlimit="10" stroke-linecap="round" stroke-linejoin="round"/><path d="M615.835 344.757l-26.778 20.756 13.355 17.258 26.777-20.756-13.354-17.258z" fill="#fff" stroke="#1D1D1D" stroke-miterlimit="10" stroke-linecap="round" stroke-linejoin="round"/><path d="M744.645 392.591c-19.757 1.541-37.205 33.385-25.659 42.373v30.304l60.299-10.786s-.257-8.732-4.619-27.736c-4.875-22.599-6.928-36.21-30.021-34.155z" fill="#1D1D1D"/><path d="M720.013 433.423l.769 13.868" stroke="#fff" stroke-miterlimit="10" stroke-linecap="round" stroke-linejoin="round"/><path d="M619.686 409.027l-10.52 5.65 8.724 23.113 25.146-5.907-2.053-15.152-7.441 4.109-13.856-11.813z" fill="#fff"/><path d="M765.942 413.906c-1.539-21.315-34.896-21.572-33.356 0 2.052 25.938-15.139 49.564-42.081 50.335-22.067.513-38.489-15.666-45.673-35.44-10.52 3.339-19.501 5.907-30.278 8.988 8.468 34.156 38.745 60.607 75.951 59.837 44.133-1.027 78.773-39.549 75.437-83.72z" fill="#1D1D1D" stroke="#1D1D1D" stroke-miterlimit="10" stroke-linecap="round" stroke-linejoin="round"/><path d="M614.811 406.972c-4.106 2.311 1.026 15.922 1.026 15.922s-3.592-14.124-6.671-12.326c-3.079 1.797 1.796 13.61 5.645 26.965" fill="#fff"/><path d="M614.811 406.972c-4.106 2.311 1.026 15.922 1.026 15.922s-3.592-14.124-6.671-12.326c-3.079 1.797 1.796 13.61 5.645 26.965" stroke="#1D1D1D" stroke-miterlimit="10" stroke-linecap="round" stroke-linejoin="round"/><path d="M644.832 428.802c-1.027-10.53-.513-22.6-4.875-20.288-4.362 2.311-2.31 16.435-12.06 7.19-8.211-8.218-7.441-11.556-11.547-10.015-4.105 1.541 6.415 14.638 6.415 14.638" fill="#fff"/><path d="M644.832 428.802c-1.027-10.53-.513-22.6-4.875-20.288-4.362 2.311-2.31 16.435-12.06 7.19-8.211-8.218-7.441-11.556-11.547-10.015-4.105 1.541 6.415 14.638 6.415 14.638" stroke="#1D1D1D" stroke-miterlimit="10" stroke-linecap="round" stroke-linejoin="round"/><path d="M714.881 453.711c10.777-9.245 17.448-22.856 23.606-36.981m28.738 10.274c-1.283 10.273-9.75 30.047-9.75 30.047" stroke="#fff" stroke-miterlimit="10" stroke-linecap="round" stroke-linejoin="round"/><path d="M605.83 388.225c-3.336 3.595 3.592 15.151 8.211 15.408 5.132.514 6.671-3.082 4.105-5.136-1.796-1.541-8.21-.514-8.21-.514s7.184-1.797 5.131-5.136c-2.052-3.338-8.467-.257-8.467-.257s7.184-1.027 6.158-3.852c-.77-2.568-4.619-3.082-6.928-.513z" fill="#fff" stroke="#1D1D1D" stroke-miterlimit="10" stroke-linecap="round" stroke-linejoin="round"/><defs><linearGradient id="paint0_linear" x1="647.417" y1="187.563" x2="415.009" y2="304.462" gradientUnits="userSpaceOnUse"><stop stop-color="#E00815"/><stop offset=".599" stop-color="#F0DBDC"/><stop offset="1" stop-color="#EBEBEB"/></linearGradient></defs></svg>