<svg width="467" height="611" fill="none" xmlns="http://www.w3.org/2000/svg"><g clip-path="url(#clip0)"><path d="M458.055 594.336H166.257V73.135C166.257 32.71 198.953 0 239.361 0H385.26c40.407 0 73.103 32.71 73.103 73.135v521.201h-.308z" fill="url(#paint0_linear)"/><path d="M406.851 149.355h-34.546v32.711h34.546v-32.711z" fill="#000"/><path d="M399.449 145.035h-34.547v32.71h34.547v-32.71z" fill="#fff" stroke="#000" stroke-miterlimit="10" stroke-linecap="round" stroke-linejoin="round"/><path d="M423.816 126.52H200.495V71.592c0-20.675 16.965-37.648 37.632-37.648h148.366c20.667 0 37.632 16.973 37.632 37.648v54.928h-.309z" fill="#000"/><path d="M379.09 311.363h28.995" stroke="#000" stroke-miterlimit="10" stroke-linecap="round" stroke-linejoin="round"/><path d="M411.478 321.238h-33.93v11.109h33.93v-11.109z" fill="#000"/><path d="M367.678 45.362l-66.01 70.666m95.004-70.666l-66.009 70.666" stroke="#fff" stroke-miterlimit="10" stroke-linecap="round" stroke-linejoin="round"/><path d="M318.325 532.619l17.89-8.023m-2.159-52.46l13.572 8.332M231.341 401.47l-9.562 12.652m211.908-20.984l-7.095 11.109" stroke="#000" stroke-miterlimit="10" stroke-linecap="round" stroke-linejoin="round"/><path d="M227.022 213.233l-18.198 91.341c-3.085 15.429-17.891 25.304-33.005 22.218L24.676 296.551C9.562 293.465-.617 278.653 2.468 263.224l18.198-91.342c3.085-15.429 17.89-25.304 33.314-22.218l151.142 30.241c15.114 3.395 24.985 18.207 21.9 33.328z" fill="#fff" stroke="#1D1D1D" stroke-miterlimit="10" stroke-linecap="round" stroke-linejoin="round"/><path d="M15.21 200.133l4.533-22.62 205.586 41.24-4.533 22.62-205.586-41.24z" fill="#1D1D1D" stroke="#1D1D1D"/><path d="M83.409 238.732l-45.366-9.101-5.458 27.231 45.366 9.101 5.458-27.231z" fill="#fff" stroke="#1D1D1D" stroke-miterlimit="10" stroke-linecap="round" stroke-linejoin="round"/><path d="M37.94 229.588l40.099 36.413" stroke="#1D1D1D" stroke-miterlimit="10" stroke-linecap="round" stroke-linejoin="round"/><path d="M118.447 320.003c5.86 4.629 13.263.618 15.731-.925z" fill="#fff"/><path d="M118.447 320.003c5.86 4.629 13.263.618 15.731-.925" stroke="#1D1D1D" stroke-miterlimit="10" stroke-linecap="round" stroke-linejoin="round"/><path d="M116.596 307.969c6.786 0 10.179 2.468 5.86 7.714-4.935 6.172-12.955 10.801-18.815 5.246" fill="#fff"/><path d="M116.596 307.969c6.786 0 10.179 2.468 5.86 7.714-4.935 6.172-12.955 10.801-18.815 5.246" stroke="#1D1D1D" stroke-miterlimit="10" stroke-linecap="round" stroke-linejoin="round"/><path d="M107.034 305.5c8.02-2.777 13.572.308 5.552 8.332-12.03 12.034-20.05 3.394-20.05 3.394" fill="#fff"/><path d="M107.034 305.5c8.02-2.777 13.572.308 5.552 8.332-12.03 12.034-20.05 3.394-20.05 3.394" stroke="#1D1D1D" stroke-miterlimit="10" stroke-linecap="round" stroke-linejoin="round"/><path d="M70.328 306.734c1.233 5.246 21.283 17.898 33.004 3.086 5.244-6.48 1.543-9.257-2.159-8.023-4.935 1.543-11.413 8.332-11.413 8.332l-19.432-3.395z" fill="#fff" stroke="#1D1D1D" stroke-miterlimit="10" stroke-linecap="round" stroke-linejoin="round"/><path d="M443.866 587.239l-.079.493h0l.002.001.011.002.047.008a16.187 16.187 0 01.905.182 35.12 35.12 0 012.583.684c2.143.653 4.995 1.728 7.843 3.418 5.593 3.32 11.129 8.981 11.317 18.473H383.92l.027-1.252a1921.717 1921.717 0 00.309-20.732c.116-12.458.116-27.361-.348-37.097-.108-2.279.685-3.74 2.102-4.646 1.464-.936 3.663-1.327 6.441-1.248 5.542.157 13.067 2.168 20.676 4.809 7.595 2.635 15.224 5.878 20.957 8.464a321.658 321.658 0 016.93 3.225c.836.402 1.494.724 1.942.944l.41.203v24.069h.5zM63.769 500.664l.003-.002c2.024-1.049 3.676-.934 5.08-.022 1.45.943 2.71 2.785 3.78 5.349 2.138 5.118 3.406 12.815 4.138 20.851.73 8.022.923 16.328.933 22.632.005 3.151-.036 5.8-.078 7.661a231.636 231.636 0 01-.074 2.624l-21.93 10.055.004.007a.42.42 0 00-.059.021.886.886 0 00-.208.261c-.03.086-.028.16-.028.166v.779l.167-.076a31.118 31.118 0 01.468 2.828c.262 2.171.423 5.176.024 8.443-.782 6.416-3.712 13.792-12.25 17.907l-33.82-75.29a1287.339 1287.339 0 005.54-2.353c3.718-1.586 8.857-3.795 14.546-6.284 11.374-4.976 24.958-11.076 33.764-15.557z" fill="#1D1D1D" stroke="#1D1D1D"/><path d="M51.82 500.526c86.368-34.253 113.512-155.836 111.661-240.388-.617-25.921 17.89-20.984 37.014-14.504 6.17-2.16 13.264-2.777 20.358-1.543 143.123 24.07 224.864 183.609 225.481 318.461h-64.776c-1.542-102.759-55.83-223.108-160.396-252.115-5.552 102.759-45.651 210.456-145.59 249.955-7.404-20.058-14.806-40.425-23.752-59.866z" fill="#fff" stroke="#1D1D1D" stroke-miterlimit="10" stroke-linecap="round" stroke-linejoin="round"/><path d="M443.866 579.524h-13.572M67.86 564.403L60.766 549.9m160.396-239.463l-23.134-4.629" stroke="#1D1D1D" stroke-miterlimit="10" stroke-linecap="round" stroke-linejoin="round"/><path d="M275.141 123.743s-1.542 11.418-12.646 11.109l-18.816 37.031a453.898 453.898 0 01-17.89-8.024l19.124-37.339c-2.468-3.703-3.393-8.949-1.851-16.046 3.085-15.738 22.826-14.504 29.303-4.937 6.478 9.566 6.786 16.355 6.786 16.355l-4.01 1.851z" fill="#fff" stroke="#1D1D1D" stroke-miterlimit="10" stroke-linecap="round" stroke-linejoin="round"/><path d="M274.216 100.908c-.308 7.097-14.806 12.652-20.05 12.652-7.711 0-7.094 7.406-.925 7.097 3.085 0-4.318 6.172-5.861 6.48-.616 0-1.542.309-2.159 0-4.627-6.48-4.318-15.12-2.159-19.132 4.318-8.023 14.806-19.44 21.283-11.726 5.861-4.32 9.871-1.852 9.871 4.629z" fill="#fff" stroke="#1D1D1D" stroke-miterlimit="10" stroke-linecap="round" stroke-linejoin="round"/><path d="M375.667 165.235l4.662-1.037-2.04 12.541-.133.816.784-.261 5.312-1.772 4.852 3.426 2.752 26.924 1.493 18.216-41.969-4.531-3.212-8.47 11.612-26.29 15.887-19.562z" fill="#fff" stroke="#1D1D1D"/><path d="M365.827 173.734c-8.328.925-18.507 8.023-15.114 27.464z" fill="#fff"/><path d="M365.827 173.734c-8.328.925-18.507 8.023-15.114 27.464" stroke="#1D1D1D" stroke-miterlimit="10" stroke-linecap="round" stroke-linejoin="round"/><path d="M266.708 259.648l-109.646 2.75c7.926-26.672 14.15-46.662 19.746-61.555 5.645-15.024 10.632-24.808 16.045-31.024 5.386-6.185 11.204-8.85 18.585-9.6 7.428-.754 16.422.43 28.165 1.976 13.113 1.764 21.84 5.993 27.458 11.973 5.617 5.979 8.185 13.772 8.854 22.785.67 9.019-.564 19.22-2.514 29.966-1.097 6.046-2.413 12.229-3.74 18.464-1.009 4.738-2.024 9.506-2.953 14.265z" fill="#1D1D1D" stroke="#1D1D1D"/><path d="M209.671 181.845l-70.617-15.463c4.823-3.406 12.434-5.645 21.551-7.009 9.661-1.446 20.928-1.899 32.173-1.764 21.428.257 42.713 2.647 52.52 4.336l-35.627 19.9z" fill="#1D1D1D" stroke="#1D1D1D"/><path d="M394.205 213.85h-46.268c0 .308 0 .617-.309 1.234-1.542 15.121 3.085 40.116-12.338 50.608-12.647 8.332-17.273-4.012-20.358-14.504-12.03-41.659-29.612-87.021-80.198-89.489-32.079-1.543-32.079 48.448 0 49.99 21.283 1.235 27.144 35.179 31.462 50.609 7.095 24.378 20.975 50.916 47.811 58.939 25.601 7.715 48.735-5.246 64.158-26.229 16.657-22.836 17.582-51.534 16.348-78.69-.308-.926-.308-1.543-.308-2.468z" fill="#1D1D1D" stroke="#1D1D1D" stroke-miterlimit="10" stroke-linecap="round" stroke-linejoin="round"/><path d="M347.628 215.084c1.234-22.218 28.686-57.397 33.005-51.534 3.393 4.937-10.488 24.378-10.488 24.378 5.861-10.183 12.955-18.823 19.741-8.331" stroke="#1D1D1D" stroke-miterlimit="10" stroke-linecap="round" stroke-linejoin="round"/><path d="M382.792 188.546c5.552-11.418 12.03-8.641 15.114-4.629 3.085 4.012 4.01 14.195-.925 15.738 0 0-5.244-1.852-2.776 16.664" fill="#fff"/><path d="M382.792 188.546c5.552-11.418 12.03-8.641 15.114-4.629 3.085 4.012 4.01 14.195-.925 15.738 0 0-5.244-1.852-2.776 16.664m0-14.504l1.542-5.863m-140.964 21.292l7.403 33.328" stroke="#1D1D1D" stroke-miterlimit="10" stroke-linecap="round" stroke-linejoin="round"/></g><defs><linearGradient id="paint0_linear" x1="312.199" y1="-30.779" x2="312.199" y2="788.665" gradientUnits="userSpaceOnUse"><stop stop-color="#E00815"/><stop offset=".417" stop-color="#F7F7F7"/><stop offset=".75" stop-color="#EBEBEB"/></linearGradient><clipPath id="clip0"><path fill="#fff" d="M0 0h467v611H0z"/></clipPath></defs></svg>