<svg xmlns="http://www.w3.org/2000/svg" fill="none" viewBox="0 0 43 50"><g clip-path="url(#clip0)"><path fill="#CCC" d="M16.337 34.52h10.521V20.631c0-1.762-1.465-3.2-3.258-3.2h-4.005c-1.793 0-3.258 1.438-3.258 3.2v13.89z"/><path fill="#1D1D1D" d="M33.643 9.561c2.64 0 4.782-2.103 4.782-4.698S36.284.165 33.643.165C31 .165 28.86 2.268 28.86 4.863s2.142 4.698 4.783 4.698zM21.418 9.561c2.641 0 4.782-2.103 4.782-4.698S24.06.165 21.418.165c-2.641 0-4.782 2.103-4.782 4.698s2.14 4.698 4.782 4.698zM9.164 9.561c2.641 0 4.783-2.103 4.783-4.698S11.805.165 9.163.165c-2.641 0-4.782 2.103-4.782 4.698s2.141 4.698 4.782 4.698zM23.6 12.732h-4.005c-4.424 0-8.04 3.553-8.04 7.9v18.586h2.361v10.16h4.782v-10.16h5.44v10.16h4.782v-10.16h2.72V20.631c0-4.346-3.586-7.899-8.04-7.899zm-7.263 7.9c0-1.763 1.465-3.201 3.258-3.201H23.6c1.793 0 3.258 1.438 3.258 3.2V34.52H16.337V20.631zM34.81 12.732h-2.003v.294c1.076 1.204 1.793 2.701 1.972 4.405h.03c1.794 0 3.258 1.438 3.258 3.2v8.78H34.63l-.03 19.967h4.782V34.109h3.468V20.631c0-4.346-3.587-7.899-8.04-7.899zM.286 20.631V34.11h3.467v15.269h4.783l.06-19.967H5.067v-8.78c0-1.762 1.465-3.2 3.258-3.2h.03c.18-1.674.897-3.201 1.973-4.405v-.294H8.326c-4.423 0-8.04 3.553-8.04 7.9z"/></g><defs><clipPath id="clip0"><path fill="#fff" d="M.286.165h42.563v49.213H.286z"/></clipPath></defs></svg>